<?xml version="1.0" encoding="UTF-8"?><svg id="Capa_2" xmlns="http://www.w3.org/2000/svg" viewBox="0 0 586.05 643.51"><defs><style>.cls-1{fill:#f5eda2;}.cls-2{fill:#865403;}.cls-3{fill:#373639;}.cls-4{fill:#f7f9cd;}.cls-5{fill:#2d694c;}.cls-6{font-family:BebasNeueRegular, 'Bebas Neue';font-size:26.53px;}.cls-7{fill:#ee9f01;}</style></defs><g><circle class="cls-5" cx="286.62" cy="277.39" r="192.13"/><g><g><path class="cls-1" d="M147.36,221.57l-51.99-3.37c-12.42-3.26-16.01,9.27-16.01,9.27-15.87,48.34-15.57,87.08-15.57,87.08-.31,22.13,19.97,33.7,36.73,46.59,12.99,9.99,24.75,20.51,24.75,20.51,12.22-11.8,5.9-33.28,5.9-33.28-5.23,2.78-24.85-10.53-24.85-10.53-30.18-17.33-24.65-26.47-24.65-26.47-1.28-34.28,10.61-68.73,10.61-68.73,4.29-9.81,13.62-7.94,13.62-7.94,9.27,.84,29.74,3.57,29.74,3.57,8,4.18,7.31,21.15,7.31,21.15l4.41-37.84Z"/><path class="cls-1" d="M151.82,179.22c84.37,20.82,130.17,10.75,130.17,10.75l-8.43,164.71c-2.19,10.97,.34,48.91,1.78,67.61,.53,6.94-3.14,14.6-9.95,16.03-69.64,14.56-140.95-14.13-140.95-14.13-12.11-5.36-8.43-12.9-8.43-12.9,5.9-11.12,9.27-29.65,9.27-29.65l5.9-33.28c9.24-58.94,20.64-169.15,20.64-169.15Z"/><path class="cls-7" d="M275.57,213.79c-3.13,39.15-10.08,156.8-11.47,180.49-.16,2.79-1.84,5.29-4.38,6.45-23.93,10.97-90.54,13.45-118.88-2.27l-6.16-3.59c-2.9-1.69-4.35-5.07-3.57-8.34,14.29-60.19,24.23-157.37,26.89-185.21,.4-4.22,4.18-7.3,8.4-6.84l102.4,11.13c4.09,.44,7.09,4.07,6.77,8.17Z"/><path class="cls-2" d="M178.88,221.88h0c.35,0,.71,.02,1.06,.05,2.83,.26,5.44,1.57,7.34,3.67,1.89,2.09,2.94,4.79,2.94,7.6,0,.36-.02,.71-.05,1.06l-11.82,127.09c-.26,2.83-1.57,5.44-3.67,7.34-2.09,1.89-4.79,2.94-7.59,2.94-.35,0-.71-.02-1.07-.05-1.6-.15-3.16-.64-4.54-1.42l15.31-148.08c.69-.13,1.38-.19,2.09-.19m0-1.86c-1.31,0-2.59,.19-3.8,.56l-15.57,150.53c1.81,1.27,3.97,2.1,6.34,2.32,.42,.04,.83,.06,1.24,.06,6.73,0,12.48-5.13,13.11-11.96l11.82-127.09c.04-.41,.06-.83,.06-1.24,0-6.73-5.13-12.48-11.97-13.11-.41-.04-.83-.06-1.24-.06h0Z"/><g><path class="cls-2" d="M175.08,220.58l-15.57,150.53c-3.75-2.63-6.02-7.14-5.57-12.03l11.82-127.09c.51-5.5,4.33-9.9,9.31-11.41Z"/><path class="cls-2" d="M159.63,371.35l-.18-.13c-3.91-2.75-6.07-7.4-5.62-12.15l11.82-127.09c.5-5.42,4.19-9.94,9.41-11.52l.19-.06-.02,.2-15.59,150.75Zm15.3-150.58c-5.01,1.6-8.54,5.98-9.03,11.23l-11.82,127.09c-.43,4.58,1.61,9.07,5.33,11.78l15.52-150.1Z"/></g><g><path class="cls-2" d="M251.64,229.13l-12.54,153.32c-6.12-1.49-10.46-7.22-10.01-13.71l8.78-127.34c.48-6.96,6.27-12.28,13.14-12.28,.21,0,.41,0,.62,.02Z"/><path class="cls-2" d="M249.62,231.06l-12.17,148.85c-4.18-1.94-6.83-6.28-6.5-11.05l8.78-127.34c.38-5.44,4.6-9.8,9.89-10.46m1.4-1.94c-6.87,0-12.66,5.32-13.14,12.28l-8.78,127.34c-.45,6.5,3.89,12.22,10.01,13.71l12.54-153.32c-.21-.01-.41-.02-.62-.02h0Z"/></g><path class="cls-2" d="M253.33,231.21c1.48,.31,2.88,.9,4.13,1.76,3.28,2.26,5.15,6.14,4.87,10.11l-8.78,127.34c-.28,4.15-2.82,7.81-6.62,9.54-1.47,.67-3.04,1.01-4.67,1.01-.26,0-.53,0-.79-.03-.12,0-.25-.02-.37-.03l12.24-149.7m-1.69-2.08l-12.54,153.32c.72,.18,1.47,.29,2.23,.35,.31,.02,.62,.03,.92,.03,1.93,0,3.77-.42,5.44-1.18,4.27-1.94,7.36-6.1,7.7-11.1l8.78-127.34c.33-4.82-1.97-9.21-5.67-11.76-1.88-1.3-4.13-2.13-6.58-2.3-.1,0-.2-.01-.3-.02h0Z"/><g><path class="cls-2" d="M212.92,208.49l-15.85,188.12c-4.33-2.49-7.05-7.35-6.56-12.66l15.35-164.99c.43-4.64,3.21-8.49,7.06-10.48Z"/><path class="cls-2" d="M197.19,396.83l-.18-.1c-4.51-2.59-7.11-7.61-6.62-12.78l15.35-164.99c.42-4.53,3.09-8.49,7.13-10.59l.21-.11-.02,.24-15.86,188.33Zm15.58-188.11c-3.84,2.08-6.37,5.9-6.78,10.27l-15.35,164.99c-.47,5,2.01,9.85,6.31,12.42l15.81-187.67Z"/></g><path class="cls-2" d="M218.97,208.86c.35,0,.71,.02,1.07,.05,2.83,.26,5.43,1.56,7.34,3.67,1.89,2.09,2.94,4.79,2.94,7.59,0,.36-.02,.72-.05,1.07l-15.34,164.99c-.26,2.83-1.57,5.44-3.67,7.34-2.09,1.89-4.79,2.94-7.6,2.94-.35,0-.71-.02-1.06-.05-1.25-.12-2.44-.43-3.56-.93l15.65-185.81c1.36-.56,2.82-.85,4.29-.85h0m0-1.86c-2.16,0-4.23,.53-6.05,1.48l-15.85,188.12c1.59,.92,3.4,1.51,5.35,1.7,.42,.04,.83,.06,1.24,.06,6.73,0,12.48-5.13,13.11-11.96l15.34-164.99c.04-.42,.06-.83,.06-1.24,0-6.73-5.13-12.48-11.97-13.11-.42-.04-.83-.06-1.24-.06h0Z"/><path class="cls-3" d="M125.23,409.61c9.33,3.72,18.95,6.96,28.66,9.5,16.18,4.27,32.83,6.88,49.52,8.15,8.92,.65,17.9,.99,26.85,.76-10.04,1.26-20.22,1.25-30.32,.74-25.77-1.55-51.64-7.32-74.71-19.15h0Z"/><path class="cls-3" d="M130.91,229.54c-.57-.56-1.35-.81-2.1-1.04-.76-.22-1.53-.38-2.31-.51-1.56-.26-3.13-.43-4.7-.57-6.3-.51-12.64-.56-18.96-.54-3.16,.01-6.33,.06-9.48,.16l.31-.08c-6.82,4.02-10.2,13.81-12.44,21.06-4.68,16.35-6.4,33.4-7.7,50.32-.58,8.49-.99,17.02-1.1,25.52,.04,.71,.55,2.48,1.09,3.36,1.84,3.43,4.6,6.29,7.41,9,3.86,3.63,8.04,6.94,12.29,10.11,8.58,6.32,17.55,12.14,26.68,17.63-11.55-6.17-48.17-26.94-49.34-40.11,.17-24.07,2.47-75.29,17.37-93.83,1.4-1.69,3.1-3.2,5.09-4.27,.1-.05,.21-.08,.31-.08,6.74,.03,33.62,.04,37.57,3.88h0Z"/><path class="cls-3" d="M223.46,444.3c-3.15,0-6.33-.06-9.54-.19-14.68-.57-29.98-2.45-45.48-5.58-26.4-5.32-44.51-12.55-44.69-12.62l-.06-.02c-5.02-2.22-8.2-5.11-9.47-8.59-1.33-3.65-.02-6.5,.13-6.82l.03-.05c4.91-9.26,8.09-24.09,8.88-28.09-2.84-2.51-12.98-11.36-23.86-19.73-2.2-1.69-4.51-3.4-6.74-5.04-15.23-11.24-30.98-22.87-30.72-43.02,0-.64-.03-10.17,1.84-25.63,1.75-14.43,5.56-36.89,13.8-61.99,.13-.46,.98-3.08,3.43-5.59,2.39-2.45,6.84-5.29,14.42-4.99h.05l50.1,3.25c2.63-23.6,4.36-40.39,4.38-40.56l.22-2.12,2.07,.51c43.31,10.69,76.17,13.04,96.11,13.13,21.61,.1,33.11-2.36,33.22-2.39l2.38-.52-.12,2.43-8.43,164.85-.03,.13c-2.19,10.93,.54,50.57,1.81,67.1h0c.3,3.85-.6,7.92-2.46,11.15-2.09,3.64-5.28,6.07-8.96,6.84-13.23,2.77-27.43,4.16-42.31,4.16Zm-98.3-21.82c.81,.32,18.49,7.28,44.09,12.43,14.59,2.94,33.65,5.64,54.34,5.64,13.37,0,27.43-1.13,41.42-4.05,5.89-1.23,8.94-8.12,8.48-14.07h0c-1.59-20.65-3.92-56.85-1.77-67.98l8.3-162.24c-4.43,.73-14.97,2.11-31.48,2.04-19.85-.08-52.35-2.36-95.09-12.73-.55,5.21-2.07,19.61-4.14,38.3h0l.13,.02-4.63,39.77h-.05c-4.48,37.96-8.43,67.92-11.73,89.03l-.14,.92-.82,.44c-1.78,.95-5.39,1.54-16.14-4.23-5.26-2.82-9.87-5.9-10.55-6.36-11.45-6.17-19.21-12.67-23.08-19.33-2.7-4.64-2.58-7.87-2.47-8.82-1.23-34.18,10.59-68.9,10.71-69.24l.05-.14c3.83-8.77,11.81-9.75,15.58-9.04,9.24,.84,29.52,3.54,29.72,3.57l.32,.04,.29,.15c3.07,1.6,5.02,4.67,6.25,8.07,.81-7.05,1.63-14.21,2.43-21.4l-49.91-3.24c-11.62-.46-14.02,7.57-14.12,7.91l-.03,.09c-15.58,47.46-15.48,86.1-15.47,86.48v.04c-.25,18.26,14.06,28.82,29.21,40,2.25,1.66,4.57,3.37,6.8,5.09,12.89,9.91,24.74,20.5,24.86,20.6l.77,.69-.19,1.02c-.14,.77-3.48,18.9-9.43,30.15-.07,.16-.75,1.84,.06,3.98,.92,2.42,3.49,4.63,7.43,6.38Zm-41.66-110.78c-.06,.52-.89,11.27,23.7,24.5l.16,.1s4.91,3.32,10.32,6.22c7.29,3.9,10.51,4.44,11.84,4.37,3.28-21.08,7.17-50.71,11.58-88.12,.02-1.95-.08-15.21-6.06-18.72-2.73-.36-20.85-2.75-29.31-3.52l-.2-.03c-.31-.06-7.89-1.4-11.52,6.79-.59,1.75-11.7,35.19-10.48,67.99v.25l-.03,.16Z"/><path class="cls-3" d="M144.01,259.53l-2.11-.17s0-.18,0-.47v-.12c1.43-12.1,2.87-24.66,4.28-37.33l.11-1.01,2.24,.15-4.53,38.95Z"/><path class="cls-3" d="M144.01,259.53l-2.11-.17s0-.18,0-.47v-.12c1.43-12.1,2.87-24.66,4.28-37.33l.11-1.01,2.24,.15-4.53,38.95Z"/><g><path class="cls-3" d="M125.28,381.65c1.55-1.81,5.63-19.99,5.63-19.99-2.75,11.33-15.08,11.83-15.08,11.83l9.46,8.16Z"/><path class="cls-3" d="M125.28,383.5c-.44,0-.88-.16-1.21-.45l-9.46-8.16c-.58-.5-.79-1.3-.54-2.02,.25-.72,.92-1.21,1.68-1.24,.44-.02,10.97-.62,13.35-10.41,.24-.99,1.23-1.6,2.23-1.37,.99,.23,1.61,1.22,1.39,2.21-1.56,6.96-4.42,18.91-6.03,20.79-.32,.37-.78,.61-1.27,.64-.05,0-.09,0-.14,0Zm-5.29-8.88l4.61,3.98c.56-1.67,1.28-4.23,2.04-7.18-1.07,.8-2.25,1.5-3.55,2.08-1.09,.49-2.15,.85-3.11,1.11Z"/></g><g><path class="cls-3" d="M135.64,238.26c6.47-.56,11.6-16.7,11.6-16.7l-4.28,37.34c1.66-14.5-7.32-20.64-7.32-20.64Z"/><path class="cls-3" d="M142.97,259.96s-.08,0-.12,0c-.58-.07-1-.59-.93-1.17,1.57-13.7-6.78-19.58-6.87-19.64-.37-.25-.54-.71-.43-1.15,.11-.43,.49-.75,.93-.79,4.73-.41,9.31-11.66,10.68-15.96,.17-.52,.7-.83,1.23-.72,.53,.11,.89,.62,.83,1.16l-4.28,37.34c-.06,.54-.52,.94-1.05,.94Zm-5.17-21.25c1.59,1.55,3.99,4.5,5.37,9.08l2.12-18.51c-1.83,3.79-4.42,7.89-7.49,9.43Z"/></g><path class="cls-3" d="M275.84,213.81c-3.86,59.5-6.87,121.1-10.06,180.65-.18,3.29-2.24,6.4-5.24,7.8-5.02,2.29-10.31,3.79-15.67,5-6.61,1.48-13.35,2.47-20.06,3.17-25.68,2.53-65.46,2.2-87.89-11.3l-3.5-2c-1.53-.89-2.89-2.19-3.77-3.76-1.36-2.31-1.7-5.15-1.04-7.75,.24-1.16,1.85-8.43,2.14-9.77,.51-2.2,1.14-5.6,1.6-7.84,.44-2.23,1.15-5.65,1.55-7.86,1.94-10.18,3.94-21.38,5.61-31.58,7.05-42.22,12.63-84.73,18.25-127.26l.53,.05c-1.98,32.11-5.11,64.21-9.1,96.14-3.08,23.97-6.57,47.93-11.46,71.61-.47,2.26-1.15,5.67-1.67,7.9-.41,1.91-2.06,8.76-2.43,10.59-.31,1.98,.66,4.03,2.4,5.05,1.18,.73,4.03,2.38,5.16,3.07,14.76,8.43,34.51,10.68,51.39,11.58,17.21,.68,34.62-.15,51.52-3.61,3.85-.82,7.68-1.8,11.38-3.14,1.23-.41,2.43-.94,3.59-1.42,1.9-.85,3.23-2.81,3.37-4.89,2.47-37.93,5.25-78.5,7.95-116.32,1.54-21.39,3.08-42.78,4.94-64.15l.53,.04h0Z"/><path class="cls-4" d="M147.42,177.92c-4.88-6.19,2.69-10.75,2.69-10.75,0-6.14,8.06-6.14,8.06-6.14-.77-8.44,10.75-13.82,10.75-13.82,3.45-13.82,16.12-6.05,16.12-6.05,7.29-8.92,16.12-4.31,16.12-4.31,19.96-19.58,28.79,5.76,28.79,5.76,16.89-2.69,16.89,11.65,16.89,11.65,12.28,.63,11.04,7.25,11.04,7.25,18.9-2.01,16.98,14.11,16.98,14.11,23.8,20.34,0,33.01,0,33.01-18.04,16.89-15.74,28.02-15.74,28.02-4.65,7.91-14.23,7.64-21.06,6.21-5.43-1.14-10.04-4.83-12.17-9.96-5.25-12.63,1.76-27.72,1.76-27.72-5.76-.46-9.62,3.92-11.79,7.49-2.71,4.46-8.79,5.51-12.83,2.21-6.15-5.03-4.94-13.92-4.94-13.92-4.22-12.67-34.55-11.9-34.55-11.9-14.59-4.22-16.12-11.13-16.12-11.13Z"/><path class="cls-3" d="M147.22,178.09c-3.73-4.09-1.66-8.82,2.41-11.72l-.46,.81c-.24-4.69,4.07-7.04,8.18-7.52,.3-.04,.52-.06,.83-.07l-1.44,1.58c-.24-1.78,.03-3.65,.68-5.31,1.88-4.65,6.06-8.02,10.28-10.44,.1-.05,.18-.1,.31-.17l-1.19,1.44c.41-1.87,1.04-3.78,2.21-5.59,3.82-5.93,11.07-5.57,16.76-2.75l.35,.18c.09,.05,.3,.16,.4,.22l-3.69,.62c2.15-2.8,5.21-5.22,8.68-6.23,3.58-1.08,7.51-.83,10.94,.62,.03,.01,.22,.1,.25,.12l-3.91,.58c8.7-9.08,19.98-12.96,29.46-2.43,2.33,2.66,4.09,5.6,5.42,8.84,.04,.09,.11,.3,.15,.39l-4.53-2.71c7.81-1.44,16.05,.39,19.97,8.03,1.17,2.31,1.83,4.74,1.99,7.3v.37l-4.19-4.42c3.03,.17,5.94,.53,8.88,1.88,3.36,1.48,6.16,4.63,6.5,8.44,.06,.74,.08,1.43-.06,2.19l-5.25-5.37c5.33-.99,11.6-.2,15.9,3.68,3.96,3.49,5.96,8.6,6.48,13.72,.03,.34,.06,.82,.07,1.16l-1.66-3.51c2.78,2.39,5.47,5.04,7.76,8.29,3.8,5.25,5.8,12.2,3.6,18.59-2,5.98-6.54,10.5-11.78,13.66-.09,.05-.34,.19-.43,.24l1.01-.72c-6.12,5.84-12.47,12.84-14.31,21.24-.16,.85-.25,1.61-.22,2.44v.09s0,.01,0,.02l-.03-.13-.53,3.2c-.96,1.58-2.17,3.1-3.62,4.35-6.05,5.31-14.76,5.41-22.2,3.71-18.25-4.45-19.39-23.85-14.42-38.88,.55-1.62,1.04-2.97,1.9-4.56l2.71,4.99c-1.27-.13-2.48,.04-3.69,.6-1.89,.84-3.68,2.71-4.93,4.53-1.83,3.13-5.15,5.42-8.75,5.78-8.87,.97-14.14-7.67-14.1-15.6-.02-1.05,.04-2.12,.19-3.17l.08,.91c-3-9.59-23.86-11.8-32.63-12.27v-.53c3.21-.05,6.41,.1,9.61,.38,7.46,.78,16.96,2.19,22.61,7.52,1.17,1.19,2.26,2.65,2.67,4.31-.33,3.6,.3,7.44,2.19,10.55,.96,1.52,2.22,2.88,3.78,3.8,3.11,1.81,7.35,1.22,9.87-1.35,.66-.63,1.13-1.41,1.61-2.18,.52-.8,1.08-1.57,1.7-2.3,2.42-2.95,6.15-5.16,10.08-4.77,.3,.01,.49,.37,.34,.63-1.24,2.48-1.97,5.28-2.57,8-1.59,8.01-1.9,17.57,3.81,24.04,3.81,4.27,9.7,5.59,15.21,5.74,5.63,.2,11.32-1.66,14.23-6.76l-.06,.34c-.37-2.85,.34-5.71,1.27-8.37,2.93-7.89,8.57-14.4,14.59-20.12,1.44-.85,2.88-1.85,4.14-2.97,5.27-4.57,7.93-10.87,5.12-17.61-1.91-4.65-5.47-8.39-9.24-11.67-.12-.1-.18-.24-.18-.38-.04-1-.19-2.06-.41-3.07-.64-3-2.01-5.98-4.32-8.03-3.13-2.82-7.62-3.24-11.65-2.55-.27,.04-.52-.14-.56-.41,0-.3,.05-.63,0-.95-.19-2.04-1.78-3.58-3.6-4.41-2.16-1.02-4.62-1.34-7-1.49-.25-.01-.45-.23-.45-.48-.15-3.75-1.89-7.66-5.15-9.67-3.29-2.07-7.43-2.11-11.19-1.52-.22,.03-.43-.1-.5-.3-1.07-2.82-2.62-5.56-4.59-7.87-4.38-5.19-10.1-6.48-16.16-3.26-2.71,1.4-5.11,3.38-7.31,5.52-.13,.13-.33,.15-.48,.08-3.28-1.52-7.3-1.56-10.55,.06-.65,.3-1.29,.7-1.88,1.12-1.19,.85-2.25,1.88-3.19,3.02-.13,.16-.36,.19-.53,.09-4.27-2.46-10.38-3.54-13.55,1.16-.96,1.37-1.58,2.99-1.99,4.64-.03,.11-.11,.2-.2,.25-5,2.55-11.06,7.23-10.58,13.45,.02,.19-.13,.36-.33,.36-3.5,.07-7.85,1.67-7.76,5.81,0,.11-.06,.2-.14,.26-1.69,1.1-3.26,2.69-3.92,4.62-.7,1.98,0,4.12,1.29,5.7l-.42,.33h0Z"/><path class="cls-3" d="M251.92,440.85c8.71-7.26,12.29-22.69,12.29-22.69-44.5,8.91-99.72-2.92-99.72-2.92,93.04,10.94,110.2-9.44,110.2-9.44-.19,4.8,.66,16.5,.66,16.5,.26,20.15-23.42,18.56-23.42,18.56Z"/><path class="cls-3" d="M177.74,162.39c1.73-8.26,10.43-11.16,17.15-6.39,.81,.59,1.58,1.25,2.18,2.06-1.91-.56-3.71-1.04-5.48-1.31-6.31-1.02-9.61,1.38-13.86,5.63h0Z"/><path class="cls-3" d="M195.86,189c.96-2.92,3.98-5.03,7.14-4.79,3.11,.24,5.85,2.33,6.81,5.24-1.34-.6-2.52-1.14-3.68-1.56-4.03-1.53-6.45-.62-10.27,1.11h0Z"/><path class="cls-3" d="M190.46,164.51c1.05-7.66,9.45-10.38,15.88-7.28,.84,.41,1.66,.88,2.36,1.52-3.48-.17-6.84-.41-10.11,.4-3.33,.78-5.73,2.8-8.13,5.36h0Z"/><path class="cls-3" d="M268.22,195.71c-2.76-3.75-5.39-7.79-9.72-9.59-4.87-1.95-10.14,.23-14.69,2.6,2.43-3.33,6.25-5.7,10.4-6.12,7.71-.69,12.82,6.16,14.01,13.11h0Z"/><path class="cls-3" d="M252.16,199.14c-1.97-2.84-3.91-5.8-6.79-7.8-4.72-3.41-10.74-2.79-16.24-1.51,1.88-1.69,4.25-2.74,6.72-3.29,8.57-1.84,15.4,4.24,16.32,12.6h0Z"/><path class="cls-3" d="M257.15,166.14c2.72-2.02,6.48-1.98,9.32-.12,1.03,.71,1.92,1.65,2.42,2.81,.68,1.53,.69,3.51-.56,4.74l-.29-.05c.06-.57-.04-1.18-.22-1.74-1.11-3.27-4.86-4.42-7.96-4.97-.9-.16-1.81-.27-2.73-.36l.02-.29h0Z"/><path class="cls-3" d="M200.13,145.15c2.73-5.27,8.03-9.7,14.18-9.91,6.62-.2,11.86,4.95,13.88,10.89,.54,1.57,.92,3.17,.96,4.84l-.28,.1c-1.14-2.85-2.73-5.57-4.72-7.9-4.44-5.2-10.31-6.5-16.41-3.29-2.74,1.41-5.17,3.38-7.42,5.49l-.2-.21h0Z"/></g><g><path class="cls-1" d="M425.87,206.35l51.99-3.37c12.42-3.26,16.01,9.27,16.01,9.27,15.87,48.34,15.57,87.08,15.57,87.08,.31,22.13-19.97,33.7-36.73,46.59-12.99,9.99-24.75,20.51-24.75,20.51-12.22-11.8-5.9-33.28-5.9-33.28,5.23,2.78,24.85-10.53,24.85-10.53,30.18-17.33,24.65-26.47,24.65-26.47,1.28-34.28-10.61-68.73-10.61-68.73-4.29-9.81-13.62-7.94-13.62-7.94-9.27,.84-29.74,3.57-29.74,3.57-8,4.18-7.31,21.15-7.31,21.15l-4.41-37.84Z"/><path class="cls-1" d="M421.41,164c-84.37,20.82-130.17,10.75-130.17,10.75l8.43,164.71c2.19,10.97-.34,48.91-1.78,67.61-.53,6.94,3.14,14.6,9.95,16.03,69.64,14.56,140.95-14.13,140.95-14.13,12.11-5.36,8.43-12.9,8.43-12.9-5.9-11.12-9.27-29.65-9.27-29.65l-5.9-33.28c-9.24-58.94-20.64-169.15-20.64-169.15Z"/><path class="cls-7" d="M297.66,198.57c3.13,39.15,10.08,156.8,11.47,180.49,.16,2.79,1.84,5.29,4.38,6.45,23.93,10.97,90.54,13.45,118.88-2.27l6.16-3.59c2.9-1.69,4.35-5.07,3.57-8.34-14.29-60.19-24.23-157.37-26.89-185.21-.4-4.22-4.18-7.3-8.4-6.84l-102.4,11.13c-4.09,.44-7.09,4.07-6.77,8.17Z"/><path class="cls-2" d="M394.35,206.66c.7,0,1.4,.06,2.09,.19l15.31,148.08c-1.39,.79-2.94,1.27-4.54,1.42-.35,.03-.71,.05-1.07,.05-2.81,0-5.5-1.04-7.59-2.94-2.1-1.91-3.41-4.51-3.67-7.34l-11.82-127.09c-.03-.35-.05-.71-.05-1.06,0-2.81,1.04-5.51,2.94-7.6,1.91-2.1,4.51-3.41,7.34-3.67,.35-.03,.71-.05,1.06-.05h0m0-1.86c-.41,0-.82,.02-1.24,.06-6.84,.63-11.97,6.38-11.97,13.11,0,.41,.02,.82,.06,1.24l11.82,127.09c.64,6.83,6.38,11.96,13.11,11.96,.41,0,.82-.02,1.24-.06,2.36-.22,4.52-1.05,6.34-2.32l-15.57-150.53c-1.21-.36-2.49-.56-3.8-.56h0Z"/><g><path class="cls-2" d="M398.15,205.36l15.57,150.53c3.75-2.63,6.02-7.14,5.57-12.03l-11.82-127.09c-.51-5.5-4.33-9.9-9.31-11.41Z"/><path class="cls-2" d="M398.02,205.37l-.02-.2,.19,.06c5.21,1.58,8.91,6.1,9.41,11.52l11.82,127.09c.44,4.75-1.71,9.4-5.62,12.15l-.18,.13-15.59-150.75Zm15.81,150.27c3.72-2.71,5.75-7.2,5.33-11.78l-11.82-127.09c-.49-5.25-4.02-9.63-9.03-11.23l15.52,150.1Z"/></g><g><path class="cls-2" d="M321.6,213.91l12.54,153.32c6.12-1.49,10.46-7.22,10.01-13.71l-8.78-127.34c-.48-6.96-6.27-12.28-13.14-12.28-.21,0-.41,0-.62,.02Z"/><path class="cls-2" d="M323.62,215.84c5.29,.66,9.51,5.02,9.89,10.46l8.78,127.34c.33,4.76-2.32,9.11-6.5,11.05l-12.17-148.85m-1.4-1.94c-.21,0-.41,0-.62,.02l12.54,153.32c6.12-1.49,10.46-7.22,10.01-13.71l-8.78-127.34c-.48-6.96-6.27-12.28-13.14-12.28h0Z"/></g><path class="cls-2" d="M319.9,215.99l12.24,149.7c-.12,.01-.25,.02-.37,.03-.26,.02-.53,.03-.79,.03-1.62,0-3.19-.34-4.67-1.01-3.8-1.73-6.33-5.38-6.62-9.54l-8.78-127.34c-.27-3.97,1.59-7.84,4.87-10.11,1.24-.86,2.65-1.46,4.13-1.76m1.69-2.08c-.1,0-.2,0-.3,.02-2.45,.17-4.69,.99-6.58,2.3-3.7,2.56-6,6.95-5.67,11.76l8.78,127.34c.34,5,3.44,9.16,7.7,11.1,1.66,.76,3.51,1.18,5.44,1.18,.31,0,.61-.01,.92-.03,.77-.05,1.51-.17,2.23-.35l-12.54-153.32h0Z"/><g><path class="cls-2" d="M360.31,193.27l15.85,188.12c4.33-2.49,7.05-7.35,6.56-12.66l-15.35-164.99c-.43-4.64-3.21-8.49-7.06-10.48Z"/><path class="cls-2" d="M360.18,193.28l-.02-.24,.21,.11c4.04,2.1,6.71,6.06,7.13,10.59l15.35,164.99c.48,5.17-2.12,10.19-6.62,12.78l-.18,.1-15.86-188.33Zm16.09,187.89c4.3-2.57,6.78-7.42,6.31-12.42l-15.35-164.99c-.4-4.36-2.93-8.18-6.78-10.27l15.81,187.67Z"/></g><path class="cls-2" d="M354.26,193.64h0c1.47,0,2.93,.29,4.29,.85l15.65,185.81c-1.12,.5-2.32,.81-3.56,.93-.35,.03-.71,.05-1.06,.05-2.81,0-5.51-1.04-7.6-2.94-2.1-1.91-3.41-4.51-3.67-7.34l-15.34-164.99c-.03-.35-.05-.71-.05-1.07,0-2.81,1.04-5.5,2.94-7.59,1.91-2.1,4.51-3.41,7.34-3.67,.35-.03,.71-.05,1.07-.05m0-1.86c-.41,0-.82,.02-1.24,.06-6.83,.63-11.97,6.38-11.97,13.11,0,.41,.02,.82,.06,1.24l15.34,164.99c.64,6.84,6.38,11.96,13.11,11.96,.41,0,.82-.02,1.24-.06,1.95-.18,3.76-.78,5.35-1.7l-15.85-188.12c-1.82-.95-3.89-1.48-6.05-1.48h0Z"/><path class="cls-3" d="M448.01,394.39c-9.33,3.72-18.95,6.96-28.66,9.5-16.18,4.27-32.83,6.88-49.52,8.15-8.92,.65-17.9,.99-26.85,.76,10.04,1.26,20.22,1.25,30.32,.74,25.77-1.55,51.64-7.32,74.71-19.15h0Z"/><path class="cls-3" d="M442.33,214.32c.57-.56,1.35-.81,2.1-1.04,.76-.22,1.53-.38,2.31-.51,1.56-.26,3.13-.43,4.7-.57,6.3-.51,12.64-.56,18.96-.54,3.16,.01,6.33,.06,9.48,.16l-.31-.08c6.82,4.02,10.2,13.81,12.44,21.06,4.68,16.35,6.4,33.4,7.7,50.32,.58,8.49,.99,17.02,1.1,25.52-.04,.71-.55,2.48-1.09,3.36-1.84,3.43-4.6,6.29-7.41,9-3.86,3.63-8.04,6.94-12.29,10.11-8.58,6.32-17.55,12.14-26.68,17.63,11.55-6.17,48.17-26.94,49.34-40.11-.17-24.07-2.47-75.29-17.37-93.83-1.4-1.69-3.1-3.2-5.09-4.27-.1-.05-.21-.08-.31-.08-6.74,.03-33.62,.04-37.57,3.88h0Z"/><path class="cls-3" d="M307.46,424.92c-3.69-.77-6.87-3.2-8.96-6.84-1.86-3.24-2.76-7.3-2.46-11.15h0c1.27-16.54,3.99-56.18,1.81-67.1l-.03-.13-8.43-164.85-.12-2.43,2.38,.52c.11,.02,11.61,2.49,33.22,2.39,19.94-.09,52.8-2.44,96.11-13.13l2.07-.51,.22,2.12c.02,.17,1.76,16.96,4.38,40.56l50.1-3.25h.05c7.59-.31,12.03,2.54,14.42,4.99,2.45,2.51,3.3,5.13,3.43,5.59,8.24,25.1,12.05,47.56,13.8,61.99,1.87,15.46,1.85,24.99,1.84,25.63,.27,20.15-15.48,31.78-30.72,43.02-2.23,1.65-4.54,3.35-6.74,5.04-10.88,8.37-21.02,17.22-23.86,19.73,.8,4,3.97,18.83,8.88,28.09l.03,.05c.15,.31,1.46,3.17,.13,6.82-1.27,3.48-4.46,6.37-9.47,8.59l-.06,.02c-.18,.07-18.29,7.3-44.69,12.62-15.5,3.13-30.81,5-45.48,5.58-3.21,.13-6.39,.19-9.54,.19-14.88,0-29.08-1.39-42.31-4.16Zm148.04-24.04c.81-2.14,.13-3.81,.06-3.98-5.95-11.24-9.29-29.38-9.43-30.15l-.19-1.02,.77-.69c.12-.11,11.96-10.69,24.86-20.6,2.23-1.71,4.55-3.43,6.8-5.09,15.15-11.18,29.46-21.75,29.21-40v-.04c0-.38,.11-39.02-15.47-86.48l-.03-.09c-.1-.34-2.51-8.37-14.12-7.91l-49.91,3.24c.8,7.2,1.62,14.35,2.43,21.4,1.23-3.4,3.18-6.47,6.25-8.07l.29-.15,.32-.04c.2-.03,20.48-2.73,29.72-3.57,3.78-.71,11.75,.27,15.58,9.04l.05,.14c.12,.35,11.94,35.07,10.71,69.24,.11,.95,.23,4.18-2.47,8.82-3.87,6.66-11.63,13.16-23.08,19.33-.68,.46-5.29,3.54-10.55,6.36-10.75,5.76-14.36,5.17-16.14,4.23l-.82-.44-.14-.92c-3.31-21.12-7.26-51.07-11.73-89.04h-.05l-4.63-39.77h.13v-.02c-2.08-18.69-3.6-33.09-4.15-38.3-42.74,10.37-75.24,12.65-95.09,12.73-16.51,.07-27.05-1.31-31.48-2.04l8.3,162.24c2.15,11.13-.19,47.33-1.77,67.98h0c-.46,5.95,2.59,12.83,8.48,14.07,13.99,2.92,28.04,4.05,41.42,4.05,20.7,0,39.75-2.71,54.34-5.64,25.6-5.16,43.28-12.11,44.09-12.43,3.94-1.75,6.51-3.95,7.43-6.38Zm34.19-104.56v-.25c1.23-32.8-9.88-66.24-10.47-67.99-3.63-8.19-11.21-6.85-11.52-6.79l-.2,.03c-8.46,.77-26.58,3.15-29.31,3.52-5.98,3.51-6.08,16.77-6.06,18.72,4.41,37.41,8.3,67.04,11.58,88.12,1.33,.07,4.55-.47,11.84-4.37,5.41-2.9,10.27-6.19,10.32-6.22l.16-.1c24.59-13.23,23.76-23.98,23.7-24.5l-.04-.16Z"/><path class="cls-3" d="M429.23,244.31l2.11-.17s0-.18,0-.47v-.12c-1.43-12.1-2.87-24.66-4.28-37.33l-.11-1.01-2.24,.15,4.53,38.95Z"/><path class="cls-3" d="M429.23,244.31l2.11-.17s0-.18,0-.47v-.12c-1.43-12.1-2.87-24.66-4.28-37.33l-.11-1.01-2.24,.15,4.53,38.95Z"/><g><path class="cls-3" d="M447.95,366.43c-1.55-1.81-5.63-19.99-5.63-19.99,2.75,11.33,15.08,11.83,15.08,11.83l-9.46,8.16Z"/><path class="cls-3" d="M447.81,368.28c-.49-.04-.95-.27-1.27-.64-1.61-1.88-4.47-13.83-6.03-20.79-.22-.99,.4-1.98,1.39-2.21,.99-.23,1.99,.38,2.23,1.37,2.38,9.79,12.91,10.39,13.35,10.41,.76,.03,1.43,.52,1.68,1.24,.25,.72,.04,1.52-.54,2.02l-9.46,8.16c-.34,.29-.77,.45-1.21,.45-.05,0-.09,0-.14,0Zm2.32-9.99c-1.3-.58-2.49-1.28-3.55-2.08,.76,2.95,1.48,5.51,2.04,7.18l4.61-3.98c-.96-.26-2.02-.62-3.11-1.11Z"/></g><g><path class="cls-3" d="M437.59,223.04c-6.47-.56-11.6-16.7-11.6-16.7l4.28,37.34c-1.66-14.5,7.32-20.64,7.32-20.64Z"/><path class="cls-3" d="M429.22,243.8l-4.28-37.34c-.06-.54,.3-1.04,.83-1.16,.53-.11,1.07,.2,1.23,.72,1.37,4.3,5.95,15.55,10.68,15.96,.45,.04,.82,.35,.93,.79,.11,.43-.06,.89-.43,1.15-.08,.06-8.44,5.93-6.87,19.64,.07,.58-.35,1.11-.93,1.17-.04,0-.08,0-.12,0-.53,0-.99-.4-1.05-.94Zm-1.27-29.73l2.12,18.51c1.38-4.58,3.78-7.53,5.37-9.08-3.07-1.53-5.65-5.64-7.49-9.43Z"/></g><path class="cls-3" d="M297.39,198.59c3.86,59.5,6.87,121.1,10.06,180.65,.18,3.29,2.24,6.4,5.24,7.8,5.02,2.29,10.31,3.79,15.67,5,6.61,1.48,13.35,2.47,20.06,3.17,25.68,2.53,65.46,2.2,87.89-11.3l3.5-2c1.53-.89,2.89-2.19,3.77-3.76,1.36-2.31,1.7-5.15,1.04-7.75-.24-1.16-1.85-8.43-2.14-9.77-.51-2.2-1.14-5.6-1.6-7.84-.44-2.23-1.15-5.65-1.55-7.86-1.94-10.18-3.94-21.38-5.61-31.58-7.05-42.22-12.63-84.73-18.25-127.26l-.53,.05c1.98,32.11,5.11,64.21,9.1,96.14,3.08,23.97,6.57,47.93,11.46,71.61,.47,2.26,1.15,5.67,1.67,7.9,.41,1.91,2.06,8.76,2.43,10.59,.31,1.98-.66,4.03-2.4,5.05-1.18,.73-4.03,2.38-5.16,3.07-14.76,8.43-34.51,10.68-51.39,11.58-17.21,.68-34.62-.15-51.52-3.61-3.85-.82-7.68-1.8-11.38-3.14-1.23-.41-2.43-.94-3.59-1.42-1.9-.85-3.23-2.81-3.37-4.89-2.47-37.93-5.25-78.5-7.95-116.32-1.54-21.39-3.08-42.78-4.94-64.15l-.53,.04h0Z"/><path class="cls-4" d="M425.81,162.7c4.88-6.19-2.69-10.75-2.69-10.75,0-6.14-8.06-6.14-8.06-6.14,.77-8.44-10.75-13.82-10.75-13.82-3.45-13.82-16.12-6.05-16.12-6.05-7.29-8.92-16.12-4.31-16.12-4.31-19.96-19.58-28.79,5.76-28.79,5.76-16.89-2.69-16.89,11.65-16.89,11.65-12.28,.63-11.04,7.25-11.04,7.25-18.9-2.01-16.98,14.11-16.98,14.11-23.8,20.34,0,33.01,0,33.01,18.04,16.89,15.74,28.02,15.74,28.02,4.65,7.91,14.23,7.64,21.06,6.21,5.43-1.14,10.04-4.83,12.17-9.96,5.25-12.63-1.76-27.72-1.76-27.72,5.76-.46,9.62,3.92,11.79,7.49,2.71,4.46,8.79,5.51,12.83,2.21,6.15-5.03,4.94-13.92,4.94-13.92,4.22-12.67,34.55-11.9,34.55-11.9,14.59-4.22,16.12-11.13,16.12-11.13Z"/><path class="cls-3" d="M426.02,162.87c3.73-4.09,1.66-8.82-2.41-11.72l.46,.81c.24-4.69-4.07-7.04-8.18-7.52-.3-.04-.52-.06-.83-.07l1.44,1.58c.24-1.78-.03-3.65-.68-5.31-1.88-4.65-6.06-8.02-10.28-10.44-.1-.05-.18-.1-.31-.17l1.19,1.44c-.41-1.87-1.04-3.78-2.21-5.59-3.82-5.93-11.07-5.57-16.76-2.75l-.35,.18c-.09,.05-.3,.16-.4,.22l3.69,.62c-2.15-2.8-5.21-5.22-8.68-6.23-3.58-1.08-7.51-.83-10.94,.62-.03,.01-.22,.1-.25,.12l3.91,.58c-8.7-9.08-19.98-12.96-29.46-2.43-2.33,2.66-4.09,5.6-5.42,8.84-.04,.09-.11,.3-.15,.39l4.53-2.71c-7.81-1.44-16.05,.39-19.97,8.03-1.17,2.31-1.83,4.74-1.99,7.3v.37l4.19-4.42c-3.03,.17-5.94,.53-8.88,1.88-3.36,1.48-6.16,4.63-6.5,8.44-.06,.74-.08,1.43,.06,2.19l5.25-5.37c-5.33-.99-11.6-.2-15.9,3.68-3.96,3.49-5.96,8.6-6.48,13.72-.03,.34-.06,.82-.07,1.16l1.66-3.51c-2.78,2.39-5.47,5.04-7.76,8.29-3.8,5.25-5.8,12.2-3.6,18.59,2,5.98,6.54,10.5,11.78,13.66,.09,.05,.34,.19,.43,.24l-1.01-.72c6.12,5.84,12.47,12.84,14.31,21.24,.16,.85,.25,1.61,.22,2.44v.09s0,.01,0,.02l.03-.13,.53,3.2c.96,1.58,2.17,3.1,3.62,4.35,6.05,5.31,14.76,5.41,22.2,3.71,18.25-4.45,19.39-23.85,14.42-38.88-.55-1.62-1.04-2.97-1.9-4.56l-2.71,4.99c1.27-.13,2.48,.04,3.69,.6,1.89,.84,3.68,2.71,4.93,4.53,1.83,3.13,5.15,5.42,8.75,5.78,8.87,.97,14.14-7.67,14.1-15.6,.02-1.05-.04-2.12-.19-3.17l-.08,.91c3-9.59,23.86-11.8,32.63-12.27v-.53c-3.21-.05-6.41,.1-9.61,.38-7.46,.78-16.96,2.19-22.61,7.52-1.17,1.19-2.26,2.65-2.67,4.31,.33,3.6-.3,7.44-2.19,10.55-.96,1.52-2.22,2.88-3.78,3.8-3.11,1.81-7.35,1.22-9.87-1.35-.66-.63-1.13-1.41-1.61-2.18-.52-.8-1.08-1.57-1.7-2.3-2.42-2.95-6.15-5.16-10.08-4.77-.3,.01-.49,.37-.34,.63,1.24,2.48,1.97,5.28,2.57,8,1.59,8.01,1.9,17.57-3.81,24.04-3.81,4.27-9.7,5.59-15.21,5.74-5.63,.2-11.32-1.66-14.23-6.76l.06,.34c.37-2.85-.34-5.71-1.27-8.37-2.93-7.89-8.57-14.4-14.59-20.12-1.44-.85-2.88-1.85-4.14-2.97-5.27-4.57-7.93-10.87-5.12-17.61,1.91-4.65,5.47-8.39,9.24-11.67,.12-.1,.18-.24,.18-.38,.04-1,.19-2.06,.41-3.07,.64-3,2.01-5.98,4.32-8.03,3.13-2.82,7.62-3.24,11.65-2.55,.27,.04,.52-.14,.56-.41,0-.3-.05-.63,0-.95,.19-2.04,1.78-3.58,3.6-4.41,2.16-1.02,4.62-1.34,7-1.49,.25-.01,.45-.23,.45-.48,.15-3.75,1.89-7.66,5.15-9.67,3.29-2.07,7.43-2.11,11.19-1.52,.22,.03,.43-.1,.5-.3,1.07-2.82,2.62-5.56,4.59-7.87,4.38-5.19,10.1-6.48,16.16-3.26,2.71,1.4,5.11,3.38,7.31,5.52,.13,.13,.33,.15,.48,.08,3.28-1.52,7.3-1.56,10.55,.06,.65,.3,1.29,.7,1.88,1.12,1.19,.85,2.25,1.88,3.19,3.02,.13,.16,.36,.19,.53,.09,4.27-2.46,10.38-3.54,13.55,1.16,.96,1.37,1.58,2.99,1.99,4.64,.03,.11,.11,.2,.2,.25,5,2.55,11.06,7.23,10.58,13.45-.02,.19,.13,.36,.33,.36,3.5,.07,7.85,1.67,7.76,5.81,0,.11,.06,.2,.14,.26,1.69,1.1,3.26,2.69,3.92,4.62,.7,1.98,0,4.12-1.29,5.7l.42,.33h0Z"/><path class="cls-3" d="M321.31,425.63c-8.71-7.26-12.29-22.69-12.29-22.69,44.5,8.91,99.72-2.92,99.72-2.92-93.04,10.94-110.2-9.44-110.2-9.44,.19,4.8-.66,16.5-.66,16.5-.26,20.15,23.42,18.56,23.42,18.56Z"/><path class="cls-3" d="M395.5,147.17c-1.73-8.26-10.43-11.16-17.15-6.39-.81,.59-1.58,1.25-2.18,2.06,1.91-.56,3.71-1.04,5.48-1.31,6.31-1.02,9.61,1.38,13.86,5.63h0Z"/><path class="cls-3" d="M377.38,173.78c-.96-2.92-3.98-5.03-7.14-4.79-3.11,.24-5.85,2.33-6.81,5.24,1.34-.6,2.52-1.14,3.68-1.56,4.03-1.53,6.45-.62,10.27,1.11h0Z"/><path class="cls-3" d="M382.77,149.29c-1.05-7.66-9.45-10.38-15.88-7.28-.84,.41-1.66,.88-2.36,1.52,3.48-.17,6.84-.41,10.11,.4,3.33,.78,5.73,2.8,8.13,5.36h0Z"/><path class="cls-3" d="M305.01,180.49c2.76-3.75,5.39-7.79,9.72-9.59,4.87-1.95,10.14,.23,14.69,2.6-2.43-3.33-6.25-5.7-10.4-6.12-7.71-.69-12.82,6.16-14.01,13.11h0Z"/><path class="cls-3" d="M321.07,183.92c1.97-2.84,3.91-5.8,6.79-7.8,4.72-3.41,10.74-2.79,16.24-1.51-1.88-1.69-4.25-2.74-6.72-3.29-8.57-1.84-15.4,4.24-16.32,12.6h0Z"/><path class="cls-3" d="M316.08,150.92c-2.72-2.02-6.48-1.98-9.32-.12-1.03,.71-1.92,1.65-2.42,2.81-.68,1.53-.69,3.51,.56,4.74l.29-.05c-.06-.57,.04-1.18,.22-1.74,1.11-3.27,4.86-4.42,7.96-4.97,.9-.16,1.81-.27,2.73-.36l-.02-.29h0Z"/><path class="cls-3" d="M373.1,129.93c-2.73-5.27-8.03-9.7-14.18-9.91-6.62-.2-11.86,4.95-13.88,10.89-.54,1.57-.92,3.17-.96,4.84l.28,.1c1.14-2.85,2.73-5.57,4.72-7.9,4.44-5.2,10.31-6.5,16.41-3.29,2.74,1.41,5.17,3.38,7.42,5.49l.2-.21h0Z"/></g></g><text class="cls-6" transform="translate(237.15 67.02) rotate(-11.93)"><tspan x="0" y="0">C</tspan></text><text class="cls-6" transform="translate(254.48 63.67) rotate(-7.26)"><tspan x="0" y="0">O</tspan></text><text class="cls-6" transform="translate(272.25 61.67) rotate(-2.03)"><tspan x="0" y="0">M</tspan></text><text class="cls-6" transform="translate(293.66 61.34) rotate(3.16)"><tspan x="0" y="0">P</tspan></text><text class="cls-6" transform="translate(310.76 62.56) rotate(7.91)"><tspan x="0" y="0">A</tspan></text><text class="cls-6" transform="translate(329.3 65.47) rotate(12.87)"><tspan x="0" y="0">Ñ</tspan></text><text class="cls-6" transform="translate(347.22 69.96) rotate(16.89)"><tspan x="0" y="0">I</tspan></text><text class="cls-6" transform="translate(358.51 73.54) rotate(20.96)"><tspan x="0" y="0">A</tspan></text><text class="cls-6" transform="translate(375.95 80.64) rotate(25)"><tspan x="0" y="0"> </tspan></text><text class="cls-6" transform="translate(386.54 85.75) rotate(28.94)"><tspan x="0" y="0">D</tspan></text><text class="cls-6" transform="translate(402.22 94.79) rotate(33.58)"><tspan x="0" y="0">E</tspan></text><text class="cls-6" transform="translate(416.34 104.58) rotate(37.4)"><tspan x="0" y="0"> </tspan></text><text class="cls-6" transform="translate(425.59 111.88) rotate(41.15)"><tspan x="0" y="0">L</tspan></text><text class="cls-6" transform="translate(437.86 122.95) rotate(45.83)"><tspan x="0" y="0">A</tspan></text><text class="cls-6" transform="translate(450.69 136.64) rotate(50.64)"><tspan x="0" y="0">S</tspan></text></g><g><g><path class="cls-2" d="M128,496.36c1.29-8.16,4.21-15.87,8.76-23.13,4.55-7.27,10.26-13.32,17.13-18.16,6.87-4.84,14.12-7.78,21.75-8.81,3.34-.45,6.37-.41,9.07,.13,2.71,.54,4.96,1.44,6.75,2.72,1.79,1.27,3.26,2.86,4.39,4.75,1.13,1.9,1.86,3.95,2.19,6.17,.33,2.22,.31,4.59-.03,7.11-.35,2.52-1.04,5.01-2.06,7.46s-2.42,4.88-4.2,7.27c-1.78,2.4-3.84,4.55-6.19,6.46-2.45,1.93-4.97,3.44-7.57,4.54-2.59,1.1-5.02,1.71-7.29,1.83-2.27,.12-4.35-.22-6.24-1.03-1.89-.81-3.38-2-4.48-3.58-1.09-1.58-1.7-3.68-1.81-6.3-.12-2.62,.38-5.54,1.48-8.78,2.16,1.04,3.74,1.78,4.73,2.23,.99,.45,2.28,.92,3.86,1.39,1.58,.48,2.95,.68,4.11,.6,1.16-.08,2.51-.33,4.05-.75,1.54-.42,3.23-1.1,5.07-2.04,1.99-1.01,3.73-2.18,5.23-3.5,1.5-1.32,2.6-2.61,3.3-3.88,.71-1.26,1.12-2.52,1.25-3.76,.12-1.24-.16-2.29-.87-3.15-.7-.86-1.73-1.55-3.07-2.06-1.35-.51-3.16-.66-5.45-.46-2.29,.2-4.91,.77-7.87,1.71-7.05,2.18-12.67,5.23-16.88,9.15-2.32,2.12-4.48,4.54-6.48,7.26-2,2.72-3.75,5.78-5.26,9.17-1.51,3.4-2.56,6.82-3.15,10.28-.6,3.46-.53,7.07,.19,10.83,.72,3.76,2.19,7.3,4.39,10.62,1.86,2.73,3.98,4.93,6.36,6.6,2.38,1.67,4.73,2.74,7.06,3.19,2.32,.46,4.63,.44,6.93-.06,2.3-.5,4.34-1.44,6.12-2.82,1.78-1.39,3.26-3.22,4.44-5.51,1.18-2.29,1.87-4.86,2.07-7.7,.3-4.83-2.03-8.1-7-9.83,1.49-2.76,4.13-4.55,7.93-5.38,3.8-.83,7.05-.26,9.77,1.71,2.19,1.67,3.6,4.01,4.22,7.01,.62,3,.15,6.39-1.41,10.17-1.52,3.34-3.69,6.37-6.51,9.06s-5.98,4.87-9.45,6.51c-3.48,1.64-7.21,2.83-11.21,3.55-4,.73-7.87,.91-11.62,.54-3.75-.37-7.37-1.38-10.87-3.04-3.5-1.65-6.45-3.89-8.85-6.7-3.1-3.62-5.25-7.92-6.46-12.89-1.21-4.97-1.32-10.53-.34-16.67Z"/><path class="cls-2" d="M223.96,497.27c-.66,2.28-1.71,4.31-3.15,6.09-1.44,1.78-3.21,3.23-5.32,4.33-2.1,1.1-4.44,1.78-7.01,2.05-3.15,.31-5.69-.35-7.62-1.99-1.93-1.64-3.09-3.75-3.46-6.34-.37-2.59-.18-5.35,.58-8.3,.76-2.95,2.03-5.55,3.8-7.81,1.29-1.64,2.61-2.95,3.96-3.94,1.35-.98,2.58-1.57,3.7-1.77,1.12-.2,2.18-.17,3.18,.09,1,.26,1.87,.73,2.62,1.41,.74,.68,1.35,1.46,1.82,2.35,.47,.89,.77,1.8,.9,2.74,.32,2.62-.48,5.25-2.4,7.9-1.92,2.65-4.18,4.05-6.75,4.21-.47,.04-1.27-.05-2.4-.28,.46,.49,.94,.82,1.43,.99,.25,1.14,.7,2.06,1.34,2.75,.64,.69,1.4,1.07,2.28,1.16,.88,.09,1.79-.07,2.74-.46,.95-.4,1.92-1.1,2.92-2.11,1-1.01,1.89-2.26,2.67-3.75,.92-1.71,1.54-3.75,1.88-6.11,.03-.27,.06-.49,.1-.68,.04-.19,.1-.38,.19-.57,.09-.19,.14-.33,.16-.41,.02-.08,.11-.17,.26-.26,.15-.09,.25-.15,.3-.18,.05-.03,.21-.07,.47-.12,.26-.05,.46-.08,.59-.09,.13-.01,.41-.02,.83-.03,.42,0,.76-.02,1.03-.05-.76,4.88-1.3,7.94-1.62,9.18Zm-13.4-10.48c-1.01,1.25-1.83,3.14-2.47,5.68,3.12-.05,5.06-1.16,5.83-3.34,.46-1.41,.32-2.51-.43-3.3-.86-.83-1.84-.51-2.94,.96Z"/><path class="cls-2" d="M223.19,482.42c-1.25-.62-2.09-1.36-2.54-2.23-.44-.87-.54-1.71-.3-2.52,.24-.81,.69-1.54,1.34-2.21,.6-.56,1.27-.9,2-1.02,.73-.12,1.41-.01,2.04,.32,.63,.34,1.1,.88,1.44,1.62,.33,.75,.37,1.76,.13,3.04-.58,.03-1.27-.04-2.07-.2,.44,.4,1.06,.6,1.86,.61,.79,0,1.53-.1,2.2-.32,.67-.22,1.45-.5,2.33-.84,.88-.34,1.45-.57,1.7-.69,2.6-.67,4.9-.18,6.89,1.48,1.99,1.66,2.83,3.97,2.52,6.95-.06,.9-.19,1.9-.39,2.99-.2,1.09-.43,2.29-.67,3.6-.24,1.31-.43,2.31-.55,3-.68,3.95-.47,5.86,.64,5.75,.84-.1,1.68-1.12,2.52-3.07,.32-.86,.56-1.72,.73-2.57,.12-.64,.31-1.75,.57-3.32,.26-1.57,.47-2.78,.63-3.64,.04-.27,.08-.48,.12-.64,.04-.16,.09-.32,.13-.48,.04-.16,.1-.3,.18-.41,.07-.11,.13-.21,.18-.29,.05-.08,.15-.14,.31-.18,.16-.03,.27-.07,.35-.1,.08-.03,.23-.06,.47-.11,.24-.04,.42-.06,.55-.07,.13,0,.38,0,.75,0,.37,0,.69,0,.95-.01-.69,3.84-1.25,6.99-1.69,9.44-.96,5.55-3.29,9.16-7,10.84-2.78,1.21-5.36,.98-7.72-.68-2.53-1.81-3.47-4.51-2.82-8.08,1.17-6.56,1.78-10.69,1.85-12.38,.13-1.43-.04-2.33-.51-2.7-.47-.37-1.19-.42-2.15-.16-.96,.27-2.16,.33-3.59,.2-.57,2.99-1.04,5.44-1.41,7.36-.28,1.71-.49,3.01-.65,3.92-.17,.8-.62,1.42-1.36,1.86-.74,.44-1.59,.55-2.56,.34,.59-3.57,.91-5.41,.96-5.52,.4-2.29,.95-5.25,1.64-8.88Z"/><path class="cls-2" d="M266.34,486.4l-.62,3.42c-.36,2.23,.01,3.27,1.12,3.13,.95-.08,1.74-.84,2.39-2.28,.2-.43,.34-.88,.44-1.36,.05-.16,.12-.42,.21-.8,.04-.26,.09-.48,.14-.64,.05-.16,.08-.32,.11-.48,.02-.16,.08-.29,.19-.4,.1-.11,.18-.2,.23-.28,.05-.08,.14-.13,.27-.17,.13-.03,.24-.06,.31-.09,.08-.03,.25-.05,.51-.05,.26,0,.46-.03,.59-.06,.13-.03,.38-.04,.75-.02,.37,.02,.66,.02,.87,.01-.18,1.01-.27,1.54-.27,1.59-.05,.05-.17,.61-.35,1.67-.33,1.49-.85,2.78-1.55,3.88-.71,1.1-1.48,1.89-2.31,2.36-.83,.47-1.71,.79-2.62,.94-.92,.16-1.73,0-2.43-.45-.48,1.86-1.26,3.57-2.35,5.13-1.09,1.56-2.29,2.78-3.61,3.66-1.32,.88-2.71,1.53-4.18,1.94-1.47,.41-2.81,.38-4.04-.08-1.23-.47-2.29-1.27-3.19-2.4-.9-1.13-1.45-2.79-1.64-4.98-.19-2.18,0-4.79,.61-7.81,.27-1.48,.88-4.32,1.82-8.52,.46-2.18,1.22-3.78,2.28-4.81,1.05-1.03,2.3-1.53,3.76-1.49,1.45,.04,3.08,.35,4.89,.93-.23,1.11-.49,2.35-.77,3.7-.28,1.35-.52,2.57-.73,3.66-.21,1.09-.46,2.32-.77,3.7-.3,1.38-.55,2.6-.73,3.66-.73,4.19-.77,6.84-.13,7.95,.64,1.12,1.62,.92,2.95-.6,1.33-1.51,2.27-3.6,2.83-6.25,.04-.26,.11-.66,.2-1.19,.23,.63,.59,1.17,1.07,1.63-.57-1.57-.93-3.61-1.08-6.14-.15-2.53-.01-5.09,.42-7.69,.43-2.6,1.15-4.46,2.18-5.6,.61-.81,1.38-1.13,2.31-.97,.93,.16,1.46,.9,1.6,2.21,.15,1.53-.41,5-1.68,10.41Z"/><path class="cls-2" d="M294.96,495.48c-.84,2.22-2.05,4.15-3.63,5.82-1.58,1.66-3.46,2.96-5.65,3.88-2.19,.93-4.57,1.42-7.15,1.47-3.16,.06-5.64-.81-7.44-2.6-1.8-1.79-2.77-3.99-2.94-6.6-.16-2.61,.26-5.35,1.25-8.23,1-2.87,2.47-5.37,4.42-7.48,1.42-1.53,2.84-2.73,4.27-3.6s2.7-1.36,3.83-1.47c1.13-.11,2.19,.01,3.16,.35,.98,.34,1.81,.88,2.49,1.62,.69,.74,1.23,1.57,1.62,2.49,.4,.92,.62,1.86,.68,2.81,.11,2.64-.9,5.19-3.03,7.68-2.13,2.48-4.49,3.7-7.07,3.65-.47,0-1.27-.16-2.37-.47,.42,.53,.87,.9,1.35,1.1,.16,1.16,.53,2.11,1.11,2.85,.58,.74,1.31,1.18,2.18,1.34,.87,.16,1.79,.08,2.77-.24,.97-.32,2-.94,3.08-1.86,1.08-.92,2.07-2.1,2.96-3.52,1.05-1.64,1.84-3.61,2.36-5.93,.05-.26,.1-.49,.16-.67,.05-.18,.13-.37,.24-.55,.1-.18,.17-.32,.2-.4,.03-.08,.12-.16,.28-.24,.16-.08,.26-.13,.32-.16,.05-.03,.21-.05,.47-.08,.26-.03,.46-.04,.59-.04,.13,0,.41,.01,.83,.04,.42,.03,.76,.04,1.03,.04-1.15,4.8-1.94,7.81-2.36,9.02Zm-12.51-11.53c-1.11,1.16-2.08,2.98-2.92,5.46,3.11,.21,5.14-.75,6.09-2.86,.58-1.37,.52-2.48-.16-3.32-.79-.89-1.79-.66-3,.72Z"/><path class="cls-2" d="M318.12,496.15c-1.35,3.34-3.5,5.98-6.45,7.91-2.95,1.93-6.37,2.87-10.28,2.83-3.16-.03-5.62-.96-7.37-2.8-1.75-1.84-2.67-4.06-2.76-6.68-.09-2.61,.4-5.34,1.47-8.19,1.07-2.85,2.61-5.3,4.62-7.36,2.16-2.21,4.27-3.66,6.32-4.35,2.05-.69,3.75-.71,5.1-.07,1.35,.64,2.45,1.6,3.29,2.89,.84,1.29,1.26,2.67,1.28,4.15,.02,1.27-.24,2.34-.79,3.22-.55,.88-1.2,1.42-1.94,1.61-.74,.19-1.53,.01-2.36-.53,.75-.51,1.07-1.63,.96-3.38-.01-1.69-.49-2.47-1.44-2.33-.53,.04-1.16,.43-1.89,1.18-.73,.75-1.32,1.59-1.76,2.53-2.67,5.31-3.11,9.26-1.33,11.83,1.22,1.88,3.08,2.35,5.58,1.41,2.08-.79,3.96-2.46,5.66-5,1.09-1.61,1.94-3.56,2.52-5.87,.29-1.05,.58-1.66,.88-1.84,.29-.18,1.05-.25,2.26-.22,.42,.06,.76,.1,1.03,.11-1.28,4.77-2.15,7.75-2.6,8.95Z"/><path class="cls-2" d="M341.21,497.44c-.96,2.17-2.27,4.04-3.93,5.61-1.67,1.58-3.62,2.77-5.85,3.58-2.23,.81-4.64,1.17-7.22,1.09-3.16-.11-5.59-1.11-7.29-2.99-1.7-1.88-2.56-4.13-2.58-6.75s.54-5.33,1.69-8.15c1.15-2.82,2.75-5.23,4.81-7.23,1.5-1.45,2.99-2.58,4.45-3.37,1.47-.79,2.77-1.21,3.91-1.26,1.14-.05,2.18,.13,3.14,.52,.96,.39,1.76,.98,2.4,1.75,.65,.77,1.14,1.63,1.49,2.57,.35,.94,.52,1.89,.53,2.84-.03,2.64-1.18,5.14-3.44,7.5-2.26,2.36-4.68,3.45-7.26,3.26-.47-.02-1.26-.22-2.34-.6,.39,.55,.82,.94,1.29,1.18,.1,1.17,.42,2.13,.96,2.9,.54,.77,1.24,1.25,2.1,1.46s1.78,.17,2.78-.09c.99-.27,2.05-.83,3.18-1.7,1.13-.86,2.17-1.98,3.14-3.36,1.14-1.58,2.03-3.51,2.68-5.8,.07-.26,.13-.48,.19-.66,.06-.18,.15-.36,.27-.54,.11-.18,.19-.31,.22-.38,.03-.08,.13-.15,.29-.22,.16-.07,.27-.12,.32-.14,.05-.02,.21-.04,.48-.05,.26-.01,.46-.02,.59,0,.13,0,.41,.03,.83,.08,.42,.05,.76,.08,1.03,.09-1.41,4.73-2.35,7.69-2.84,8.88Zm-11.88-12.18c-1.17,1.1-2.23,2.87-3.21,5.3,3.09,.37,5.17-.47,6.23-2.53,.65-1.34,.65-2.45,.01-3.33-.74-.94-1.76-.75-3.04,.55Z"/><path class="cls-2" d="M342.46,482.63c-1.15-.78-1.89-1.63-2.21-2.56-.32-.92-.31-1.77,.04-2.54,.35-.77,.89-1.44,1.63-2.01,.67-.47,1.38-.72,2.12-.74,.74-.02,1.4,.18,1.98,.59,.57,.42,.98,1.02,1.2,1.8,.23,.79,.13,1.8-.28,3.03-.58-.05-1.25-.21-2.02-.48,.39,.45,.97,.74,1.76,.85,.78,.12,1.52,.11,2.22-.02,.7-.13,1.5-.3,2.42-.52,.92-.22,1.51-.37,1.78-.45,2.67-.31,4.88,.48,6.63,2.4,1.75,1.91,2.27,4.32,1.56,7.23-.18,.89-.44,1.86-.79,2.91-.35,1.06-.73,2.22-1.15,3.48-.42,1.26-.73,2.23-.95,2.9-1.21,3.82-1.25,5.74-.15,5.78,.84,.02,1.82-.89,2.91-2.7,.43-.81,.79-1.63,1.07-2.45,.21-.62,.54-1.69,1.01-3.21,.47-1.52,.84-2.7,1.12-3.52,.07-.26,.14-.46,.21-.62,.06-.15,.13-.31,.2-.46,.06-.15,.14-.28,.23-.38,.09-.1,.16-.19,.22-.26,.06-.07,.17-.12,.33-.13,.16-.01,.28-.03,.36-.05,.08-.02,.24-.03,.48-.04,.24,0,.42,0,.56,0,.13,.01,.38,.04,.75,.1,.37,.06,.68,.09,.94,.12-1.2,3.71-2.18,6.75-2.95,9.13-1.7,5.37-4.5,8.63-8.4,9.8-2.92,.82-5.44,.25-7.56-1.72-2.26-2.14-2.83-4.93-1.71-8.39,2.04-6.34,3.21-10.35,3.5-12.02,.32-1.4,.28-2.32-.14-2.75-.42-.43-1.12-.58-2.11-.45-.99,.13-2.18,.04-3.59-.29-.97,2.88-1.77,5.25-2.39,7.11-.5,1.65-.9,2.92-1.18,3.79-.27,.77-.81,1.32-1.6,1.66-.79,.33-1.65,.33-2.58,0,1.07-3.46,1.64-5.24,1.7-5.34,.71-2.22,1.65-5.08,2.83-8.58Z"/><path class="cls-2" d="M382.59,492.29c-.38,1.07-.92,2.62-1.63,4.64-.71,2.02-1.22,3.49-1.53,4.41-1.82,5.33-4.69,8.53-8.62,9.61-2.94,.76-5.45,.13-7.52-1.89-2.21-2.19-2.72-5-1.52-8.42,.4-1.28,.89-2.76,1.49-4.42,.59-1.66,1.18-3.32,1.74-4.99,.57-1.66,1.05-3.14,1.45-4.42,.74-2.1,1.71-3.59,2.88-4.47,1.18-.89,2.48-1.22,3.92-.99,1.43,.23,3.01,.72,4.74,1.48-.98,2.81-2.91,8.5-5.81,17.05-1.34,3.73-1.43,5.66-.28,5.78,.84,.03,1.84-.84,2.97-2.64,.45-.8,.83-1.61,1.12-2.43,1.14-3.33,1.9-5.56,2.28-6.68,.08-.26,.15-.47,.23-.65,.07-.18,.16-.35,.25-.53,.1-.18,.18-.3,.24-.37,.06-.07,.17-.14,.34-.2s.28-.1,.33-.13c.05-.02,.21-.03,.48-.03,.26,0,.46,0,.59,.02,.13,.01,.4,.06,.82,.12,.42,.07,.76,.12,1.02,.14Zm-6.98-21.07c1.3-.24,2.47-.04,3.52,.6,1.05,.64,1.68,1.54,1.91,2.7,.22,1.16-.04,2.23-.81,3.22-.76,.98-1.77,1.59-3.01,1.84-.91,.12-1.74,.07-2.49-.14-.75-.21-1.4-.61-1.94-1.19-.55-.59-.89-1.26-1.03-2.01-.2-1.13,.08-2.19,.84-3.17,.76-.98,1.77-1.59,3.01-1.84Z"/><path class="cls-2" d="M407.97,497.52c.08-.25,.17-.47,.24-.65,.07-.18,.15-.34,.22-.49,.07-.15,.15-.26,.24-.33s.17-.15,.23-.25c.06-.1,.18-.15,.34-.16,.16,0,.28-.02,.36-.03,.08-.02,.24,0,.48,.02s.42,.05,.55,.07c.13,.02,.38,.05,.75,.1,.37,.05,.68,.09,.94,.12-.87,2.23-2,5.22-3.39,8.97-.96,2.48-2.16,4.52-3.62,6.11-1.45,1.59-2.94,2.61-4.46,3.05-1.52,.44-2.99,.53-4.42,.27-1.43-.26-2.65-.9-3.66-1.91-1.01-1.01-1.67-2.22-1.96-3.64-3.01,2.7-6.08,3.84-9.21,3.44-3.76-.48-5.83-2.82-6.19-7.02-.36-4.19,.87-8.61,3.7-13.24,2.87-4.57,6.2-7.25,9.97-8.04,1.09-.23,2.14-.28,3.13-.15,2.56,.33,4.36,1.6,5.41,3.81,1.14-1.82,2.63-2.77,4.47-2.85,1.84-.08,3.8,.49,5.88,1.71-.58,1.63-1.58,4.31-2.99,8.07-1.41,3.75-2.52,6.69-3.33,8.82-1.38,3.7-1.49,5.6-.34,5.7,.84,.06,1.86-.8,3.04-2.56,.47-.74,.86-1.54,1.19-2.4,.52-1.53,1.33-3.71,2.44-6.54Zm-20.82,8.08c1.26,.16,2.86-1.55,4.81-5.12,2.22-4.02,3.21-7.19,2.98-9.5-.15-.92-.56-1.45-1.23-1.59-1.62-.21-3.35,1.67-5.19,5.63-1.83,3.86-2.62,6.92-2.38,9.18,.1,.86,.44,1.33,1.01,1.41Z"/><path class="cls-2" d="M428.27,501.19c8.98-1.75,15.29-.64,18.93,3.31,2.24,2.48,2.92,5.35,2.02,8.62-.81,3.07-2.66,5.13-5.58,6.17-2.28,.78-4.8,.66-7.56-.36,3.33-5.89,1.81-9.91-4.56-12.04-.76-.24-1.66-.45-2.7-.63l.93,.64c-.59,1.82-1.93,3.68-4.02,5.56-1.27,1.12-2.56,2.03-3.89,2.73-1.33,.7-3.06,1.22-5.21,1.54-3.91,.65-6.62-.09-8.12-2.22-1.33-1.89-1.02-3.98,.93-6.26,1.75-2.05,4.52-3.68,8.32-4.89-4.07-.6-6.8-1.64-8.2-3.12-1.16-1.33-1.51-2.75-1.06-4.28,.45-1.53,1.39-2.95,2.8-4.29,1.41-1.33,3.02-2.4,4.82-3.21,4.39-1.85,8.78-2.32,13.17-1.39,3.92,.85,6.03,2.55,6.33,5.12,.12,1.47-.37,3.04-1.47,4.72-.49,.66-1.35,1.42-2.57,2.28-.28-1.44-1.48-2.57-3.58-3.4-2.1-.82-4.24-1.14-6.41-.96-2.17,.18-3.49,.79-3.93,1.84-.2,.55-.11,1.01,.28,1.37,.39,.36,1.03,.63,1.9,.82,.88,.18,1.78,.35,2.72,.52,.93,.16,1.93,.38,2.98,.64,1.05,.26,1.86,.61,2.43,1.03,.1,.02,.2,.06,.3,.13Z"/></g><g><path class="cls-2" d="M222.73,537.55c-1.3,3.16-2.66,7.92-4.08,14.26-1.43,6.35-2.62,13.15-3.58,20.41-.96,7.26-.74,13.43,.68,18.51,1.41,5.07,4.21,7.38,8.41,6.9,2.56-.35,5-1.91,7.3-4.67,2.3-2.76,4.21-6.04,5.72-9.83,1.51-3.79,2.79-7.94,3.82-12.46,2.38-10.49,4.84-19.66,7.37-27.52,4-12.2,9.78-20.45,17.33-24.78,5.07-2.92,9.83-3.57,14.29-1.95,3.42,1.22,5.49,3.37,6.19,6.43,.93,3.95-.86,7.89-5.38,11.82-.35,.29-.7,.58-1.04,.87-.31-3.41-1.89-5.38-4.73-5.91-2.04-.37-4.06-.04-6.07,1.01-2.01,1.05-3.78,2.5-5.3,4.36-1.53,1.86-2.95,4.02-4.27,6.47-1.32,2.45-2.39,4.77-3.21,6.94-.82,2.18-1.47,4.23-1.95,6.17-2.5,9.7-3.59,19.62-3.28,29.75,.31,10.13,2,15.89,5.07,17.3-.16,1.39-.81,2.61-1.94,3.68-1.14,1.06-2.5,1.79-4.08,2.17-1.58,.38-3.19,.49-4.81,.32-1.63-.17-3.1-.81-4.43-1.93-1.33-1.12-2.19-2.59-2.59-4.41-2.29,2.6-5.21,4.5-8.77,5.7-3.56,1.19-6.84,1.53-9.84,1.02-2.84-.53-5.31-1.53-7.4-3.01-2.09-1.48-3.73-3.17-4.9-5.06-1.17-1.89-2.07-4.17-2.69-6.82-.62-2.65-1-5.21-1.13-7.69-.13-2.47-.07-5.21,.18-8.22,.25-3.01,.56-5.61,.92-7.8,.36-2.19,.82-4.58,1.37-7.16,2.1-10.1,4.72-18.49,7.86-25.18,1.57-.28,2.71-.44,3.45-.5-6.6-1.3-10.97-2.06-13.1-2.27-6.39-.63-11.61,.69-15.64,3.95-3.19,2.57-4.56,5.47-4.1,8.71,.53,3.5,3.17,6.24,7.91,8.21-2.15,.95-4.19,1.43-6.12,1.41-1.93-.01-3.76-.31-5.5-.9-1.74-.58-3.28-1.48-4.64-2.7-1.36-1.22-2.55-2.57-3.56-4.05-1.01-1.48-1.76-3.16-2.24-5.03-.48-1.87-.74-3.71-.77-5.53-.03-1.82,.28-3.68,.93-5.58,.65-1.9,1.6-3.64,2.86-5.21,1.69-2.19,3.56-3.93,5.64-5.22,2.07-1.29,4.13-2.17,6.18-2.65,2.05-.47,4.29-.6,6.71-.39,2.42,.21,4.66,.59,6.71,1.12,2.05,.53,4.3,1.34,6.76,2.43,2.46,1.08,4.6,2.1,6.42,3.05,1.82,.95,3.8,2.08,5.97,3.4,3.36-5.96,7.04-8.67,11.05-8.13,2.51,.34,4.47,1.83,5.89,4.47,1.53,2.85,1.63,5.46,.27,7.83-1.87,3.31-5.89,4.59-12.08,3.84Z"/><path class="cls-2" d="M266.12,584.61c-3.16,.03-5.46-.51-6.9-1.64-1.43-1.12-1.82-3.19-1.17-6.2,2.17-10.41,3.3-15.74,3.41-16.01,.45-2.17,1.22-3.75,2.29-4.77,1.07-1.01,2.33-1.49,3.78-1.42,1.45,.07,3.07,.38,4.87,.94l-.15,.63c1.52-1.02,3.15-1.58,4.89-1.71,1.74-.12,3.27,.14,4.59,.79,1.32,.65,2.37,1.69,3.15,3.13,.78,1.44,1.04,3.06,.8,4.86-.15,.9-.34,1.89-.57,2.97-.23,1.08-.51,2.29-.84,3.61-.33,1.32-.57,2.33-.72,3.01-.86,3.86-.74,5.75,.37,5.69,.9,0,1.78-.99,2.66-2.95,.36-.79,.64-1.64,.85-2.54,.2-.74,.47-1.88,.8-3.41,.33-1.53,.57-2.67,.72-3.41,.05-.26,.1-.49,.15-.67,.05-.18,.1-.36,.15-.52,.05-.16,.12-.28,.19-.36s.14-.16,.2-.24c.05-.08,.16-.15,.31-.2,.16-.05,.28-.09,.35-.12,.08-.03,.24-.04,.47-.04,.24,0,.43,0,.59,0h.79c.37-.01,.66-.01,.87-.02-.2,1-.54,2.55-1.02,4.64-.48,2.09-.82,3.66-1.02,4.72-.86,3.65-2.25,6.4-4.15,8.26-1.91,1.86-3.99,2.81-6.26,2.83-2.43,.02-4.41-.89-5.96-2.75-1.55-1.86-1.99-4.19-1.33-6.99,.15-.58,.43-1.73,.84-3.45,.41-1.72,.73-3.2,.99-4.44,.25-1.24,.45-2.39,.6-3.45,.24-2.16-.19-3.19-1.29-3.07-1.11,.06-2.2,1.05-3.29,2.96-.47,.9-.8,1.77-1,2.62l-.3,1.74c-2.48,11.25-3.72,16.91-3.72,16.96Z"/><path class="cls-2" d="M307.1,564.7c-.28,1.1-.69,2.69-1.22,4.77-.53,2.08-.91,3.58-1.14,4.53-1.35,5.46-3.93,8.91-7.75,10.32-2.86,1.01-5.41,.6-7.65-1.22-2.4-1.99-3.14-4.74-2.25-8.26,.28-1.31,.65-2.82,1.1-4.53,.45-1.71,.88-3.41,1.3-5.12,.42-1.71,.77-3.22,1.06-4.53,.56-2.15,1.39-3.72,2.48-4.71,1.09-.98,2.37-1.43,3.82-1.33,1.45,.1,3.06,.46,4.85,1.06-.73,2.89-2.16,8.72-4.3,17.49-1.01,3.83-.93,5.76,.23,5.78,.84-.04,1.76-1,2.73-2.89,.38-.84,.68-1.68,.91-2.52,.84-3.41,1.4-5.7,1.68-6.86,.06-.26,.11-.49,.17-.67,.05-.18,.12-.37,.21-.55,.08-.18,.15-.31,.2-.39,.05-.08,.16-.16,.32-.23,.16-.08,.27-.13,.32-.15,.05-.03,.21-.05,.48-.07,.26-.02,.46-.03,.59-.03,.13,0,.41,.02,.83,.05,.42,.03,.76,.05,1.03,.05Zm-8.79-20.38c1.27-.35,2.46-.25,3.56,.29,1.1,.54,1.81,1.38,2.14,2.52,.32,1.14,.15,2.23-.52,3.27-.68,1.05-1.62,1.74-2.84,2.09-.9,.2-1.73,.22-2.49,.08-.76-.14-1.44-.48-2.04-1.02-.6-.54-1-1.17-1.2-1.92-.3-1.11-.11-2.19,.56-3.23,.67-1.04,1.62-1.74,2.84-2.09Z"/><path class="cls-2" d="M329.25,534.6c.69-1.5,1.5-2.78,2.41-3.82,.91-1.04,1.95-1.83,3.1-2.37,1.16-.53,2.43-.69,3.82-.48,1.39,.21,2.86,.8,4.4,1.76-1.58,1.2-2.89,2.97-3.93,5.3-.64,1.4-1.26,2.9-1.88,4.51-.62,1.61-1.27,3.48-1.97,5.62-.69,2.14-1.28,3.97-1.76,5.51-.48,1.54-1.1,3.65-1.84,6.34-.74,2.69-1.27,4.58-1.57,5.68-.31,1.1-.85,3.11-1.63,6.03-.78,2.92-1.23,4.62-1.35,5.09l-.28,1.1c-.82,3.29-.7,4.91,.36,4.84,.95-.07,1.92-1.08,2.89-3.05,.35-.72,.64-1.48,.88-2.26,.13-.63,.41-1.71,.84-3.25,.43-1.54,.77-2.7,1.01-3.48,.06-.26,.12-.48,.18-.67,.06-.18,.11-.35,.14-.51,.03-.16,.1-.27,.21-.35,.11-.07,.19-.15,.25-.23,.05-.08,.15-.14,.28-.19,.13-.05,.24-.08,.32-.11,.08-.02,.25-.03,.52-.02,.26,.01,.46,.02,.59,.02,.13,0,.38,.02,.75,.03,.37,.01,.66,.03,.87,.04-.99,3.65-1.83,6.73-2.51,9.24-.74,2.56-1.76,4.69-3.07,6.41-1.31,1.72-2.7,2.86-4.17,3.43-1.48,.57-2.92,.79-4.34,.66-1.42-.14-2.69-.65-3.82-1.54-1.13-.89-1.9-2.03-2.32-3.42-2.7,2.9-5.63,4.29-8.79,4.16-3.79-.15-6.06-2.3-6.79-6.45-.73-4.14,.11-8.65,2.52-13.51,2.46-4.81,5.54-7.77,9.22-8.89,1.07-.33,2.1-.47,3.1-.43,2.42,.1,4.23,1.07,5.42,2.91,2.96-10.65,5.6-18.53,7.91-23.66Zm-16.44,42.95c1.26,.05,2.71-1.79,4.34-5.52,1.91-4.2,2.65-7.44,2.21-9.72-.23-.96-.71-1.45-1.44-1.48-1.63-.07-3.19,1.96-4.68,6.07-1.48,4-2,7.12-1.56,9.36,.18,.85,.55,1.29,1.13,1.31Z"/><path class="cls-2" d="M362.52,569.94c.07-.26,.14-.48,.21-.66,.07-.18,.13-.35,.2-.5,.06-.15,.14-.27,.22-.34,.08-.07,.16-.16,.22-.26,.06-.1,.17-.16,.33-.17,.16-.01,.28-.03,.36-.05,.08-.02,.24-.02,.48,0,.24,.02,.42,.03,.55,.04,.13,0,.38,.03,.75,.06,.37,.03,.68,.05,.95,.07-.75,2.27-1.72,5.32-2.9,9.14-.82,2.53-1.92,4.63-3.29,6.3-1.37,1.67-2.8,2.76-4.29,3.29-1.49,.52-2.96,.69-4.4,.5-1.44-.19-2.69-.76-3.76-1.71-1.07-.95-1.78-2.13-2.15-3.53-2.86,2.85-5.86,4.16-9.02,3.93-3.79-.28-5.97-2.51-6.56-6.68-.59-4.17,.41-8.64,2.99-13.42,2.63-4.72,5.8-7.58,9.52-8.57,1.08-.29,2.12-.4,3.12-.32,2.58,.19,4.44,1.36,5.61,3.51,1.04-1.88,2.48-2.91,4.31-3.09,1.84-.18,3.82,.29,5.96,1.4-.49,1.66-1.35,4.39-2.56,8.21-1.21,3.82-2.16,6.82-2.85,8.99-1.18,3.77-1.19,5.67-.03,5.71,.84,.01,1.81-.9,2.9-2.72,.43-.76,.78-1.58,1.06-2.46,.43-1.55,1.13-3.77,2.08-6.66Zm-20.35,9.18c1.26,.09,2.77-1.7,4.53-5.37,2-4.13,2.82-7.35,2.47-9.65-.2-.91-.63-1.42-1.31-1.53-1.63-.12-3.26,1.85-4.88,5.9-1.62,3.95-2.25,7.05-1.88,9.3,.15,.86,.51,1.31,1.09,1.35Z"/><path class="cls-2" d="M383,572.51c8.87-2.23,15.23-1.47,19.08,2.28,2.37,2.35,3.2,5.19,2.49,8.5-.64,3.11-2.38,5.26-5.23,6.46-2.23,.9-4.76,.92-7.57,.05,3.01-6.06,1.27-9.99-5.21-11.77-.77-.2-1.68-.36-2.73-.49l.96,.59c-.49,1.85-1.72,3.78-3.71,5.77-1.2,1.18-2.45,2.16-3.74,2.94-1.29,.78-2.99,1.38-5.12,1.82-3.87,.86-6.62,.27-8.23-1.78-1.43-1.82-1.23-3.92,.59-6.3,1.64-2.14,4.32-3.92,8.04-5.33-4.1-.38-6.88-1.27-8.36-2.67-1.23-1.26-1.66-2.67-1.29-4.22,.37-1.55,1.22-3.03,2.56-4.43,1.34-1.41,2.88-2.56,4.64-3.47,4.28-2.09,8.64-2.79,13.07-2.1,3.96,.63,6.16,2.22,6.6,4.77,.2,1.46-.21,3.06-1.21,4.79-.45,.69-1.27,1.49-2.44,2.42-.36-1.42-1.61-2.49-3.76-3.2-2.15-.71-4.3-.91-6.46-.61-2.16,.3-3.44,.98-3.83,2.05-.17,.56-.06,1.02,.36,1.36,.41,.34,1.06,.58,1.95,.71,.89,.13,1.8,.25,2.74,.37,.94,.11,1.94,.27,3.01,.48,1.06,.21,1.89,.5,2.48,.89,.1,.01,.21,.05,.3,.12Z"/></g><g><path class="cls-2" d="M126.14,494.77c1.29-8.16,4.21-15.87,8.76-23.13,4.55-7.27,10.26-13.32,17.13-18.16,6.87-4.84,14.12-7.78,21.75-8.81,3.34-.45,6.37-.41,9.07,.13,2.71,.54,4.96,1.44,6.75,2.72,1.79,1.27,3.26,2.86,4.39,4.75,1.13,1.9,1.86,3.95,2.19,6.17,.33,2.22,.31,4.59-.03,7.11-.35,2.52-1.04,5.01-2.06,7.46s-2.42,4.88-4.2,7.27c-1.78,2.4-3.84,4.55-6.19,6.46-2.45,1.93-4.97,3.44-7.57,4.54-2.59,1.1-5.02,1.71-7.29,1.83-2.27,.12-4.35-.22-6.24-1.03-1.89-.81-3.38-2-4.48-3.58-1.09-1.58-1.7-3.68-1.81-6.3-.12-2.62,.38-5.54,1.48-8.78,2.16,1.04,3.74,1.78,4.73,2.23,.99,.45,2.28,.92,3.86,1.39,1.58,.48,2.95,.68,4.11,.6,1.16-.08,2.51-.33,4.05-.75,1.54-.42,3.23-1.1,5.07-2.04,1.99-1.01,3.73-2.18,5.23-3.5,1.5-1.32,2.6-2.61,3.3-3.88,.71-1.26,1.12-2.52,1.25-3.76,.12-1.24-.16-2.29-.87-3.15-.7-.86-1.73-1.55-3.07-2.06-1.35-.51-3.16-.66-5.45-.46-2.29,.2-4.91,.77-7.87,1.71-7.05,2.18-12.67,5.23-16.88,9.15-2.32,2.12-4.48,4.54-6.48,7.26-2,2.72-3.75,5.78-5.26,9.17-1.51,3.4-2.56,6.82-3.15,10.28-.6,3.46-.53,7.07,.19,10.83,.72,3.76,2.19,7.3,4.39,10.62,1.86,2.73,3.98,4.93,6.36,6.6,2.38,1.67,4.73,2.74,7.06,3.19,2.32,.46,4.63,.44,6.93-.06,2.3-.5,4.34-1.44,6.12-2.82,1.78-1.39,3.26-3.22,4.44-5.51,1.18-2.29,1.87-4.86,2.07-7.7,.3-4.83-2.03-8.1-7-9.83,1.49-2.76,4.13-4.55,7.93-5.38,3.8-.83,7.05-.26,9.77,1.71,2.19,1.67,3.6,4.01,4.22,7.01,.62,3,.15,6.39-1.41,10.17-1.52,3.34-3.69,6.37-6.51,9.06s-5.98,4.87-9.45,6.51c-3.48,1.64-7.21,2.83-11.21,3.55-4,.73-7.87,.91-11.62,.54-3.75-.37-7.37-1.38-10.87-3.04-3.5-1.65-6.45-3.89-8.85-6.7-3.1-3.62-5.25-7.92-6.46-12.89-1.21-4.97-1.32-10.53-.34-16.67Z"/><path class="cls-2" d="M222.1,495.68c-.66,2.28-1.71,4.31-3.15,6.09-1.44,1.78-3.21,3.23-5.32,4.33-2.1,1.1-4.44,1.78-7.01,2.05-3.15,.31-5.69-.35-7.62-1.99-1.93-1.64-3.09-3.75-3.46-6.34-.37-2.59-.18-5.35,.58-8.3,.76-2.95,2.03-5.55,3.8-7.81,1.29-1.64,2.61-2.95,3.96-3.94,1.35-.98,2.58-1.57,3.7-1.77,1.12-.2,2.18-.17,3.18,.09,1,.26,1.87,.73,2.62,1.41,.74,.68,1.35,1.46,1.82,2.35,.47,.89,.77,1.8,.9,2.74,.32,2.62-.48,5.25-2.4,7.9-1.92,2.65-4.18,4.05-6.75,4.21-.47,.04-1.27-.05-2.4-.28,.46,.49,.94,.82,1.43,.99,.25,1.14,.7,2.06,1.34,2.75,.64,.69,1.4,1.07,2.28,1.16,.88,.09,1.79-.07,2.74-.46,.95-.4,1.92-1.1,2.92-2.11,1-1.01,1.89-2.26,2.67-3.75,.92-1.71,1.54-3.75,1.88-6.11,.03-.27,.06-.49,.1-.68,.04-.19,.1-.38,.19-.57,.09-.19,.14-.33,.16-.41,.02-.08,.11-.17,.26-.26,.15-.09,.25-.15,.3-.18,.05-.03,.21-.07,.47-.12,.26-.05,.46-.08,.59-.09,.13-.01,.41-.02,.83-.03,.42,0,.76-.02,1.03-.05-.76,4.88-1.3,7.94-1.62,9.18Zm-13.4-10.48c-1.01,1.25-1.83,3.14-2.47,5.68,3.12-.05,5.06-1.16,5.83-3.34,.46-1.41,.32-2.51-.43-3.3-.86-.83-1.84-.51-2.94,.96Z"/><path class="cls-2" d="M221.34,480.83c-1.25-.62-2.09-1.36-2.54-2.23-.44-.87-.54-1.71-.3-2.52,.24-.81,.69-1.54,1.34-2.21,.6-.56,1.27-.9,2-1.02,.73-.12,1.41-.01,2.04,.32,.63,.34,1.1,.88,1.44,1.62,.33,.75,.37,1.76,.13,3.04-.58,.03-1.27-.04-2.07-.2,.44,.4,1.06,.6,1.86,.61,.79,0,1.53-.1,2.2-.32,.67-.22,1.45-.5,2.33-.84,.88-.34,1.45-.57,1.7-.69,2.6-.67,4.9-.18,6.89,1.48,1.99,1.66,2.83,3.97,2.52,6.95-.06,.9-.19,1.9-.39,2.99-.2,1.09-.43,2.29-.67,3.6-.24,1.31-.43,2.31-.55,3-.68,3.95-.47,5.86,.64,5.75,.84-.1,1.68-1.12,2.52-3.07,.32-.86,.56-1.72,.73-2.57,.12-.64,.31-1.75,.57-3.32,.26-1.57,.47-2.78,.63-3.64,.04-.27,.08-.48,.12-.64,.04-.16,.09-.32,.13-.48,.04-.16,.1-.3,.18-.41,.07-.11,.13-.21,.18-.29,.05-.08,.15-.14,.31-.18,.16-.03,.27-.07,.35-.1,.08-.03,.23-.06,.47-.11,.24-.04,.42-.06,.55-.07,.13,0,.38,0,.75,0,.37,0,.69,0,.95-.01-.69,3.84-1.25,6.99-1.69,9.44-.96,5.55-3.29,9.16-7,10.84-2.78,1.21-5.36,.98-7.72-.68-2.53-1.81-3.47-4.51-2.82-8.08,1.17-6.56,1.78-10.69,1.85-12.38,.13-1.43-.04-2.33-.51-2.7-.47-.37-1.19-.42-2.15-.16-.96,.27-2.16,.33-3.59,.2-.57,2.99-1.04,5.44-1.41,7.36-.28,1.71-.49,3.01-.65,3.92-.17,.8-.62,1.42-1.36,1.86-.74,.44-1.59,.55-2.56,.34,.59-3.57,.91-5.41,.96-5.52,.4-2.29,.95-5.25,1.64-8.88Z"/><path class="cls-2" d="M264.48,484.81l-.62,3.42c-.36,2.23,.01,3.27,1.12,3.13,.95-.08,1.74-.84,2.39-2.28,.2-.43,.34-.88,.44-1.36,.05-.16,.12-.42,.21-.8,.04-.26,.09-.48,.14-.64,.05-.16,.08-.32,.11-.48,.02-.16,.08-.29,.19-.4,.1-.11,.18-.2,.23-.28,.05-.08,.14-.13,.27-.17,.13-.03,.24-.06,.31-.09,.08-.03,.25-.05,.51-.05,.26,0,.46-.03,.59-.06,.13-.03,.38-.04,.75-.02,.37,.02,.66,.02,.87,.01-.18,1.01-.27,1.54-.27,1.59-.05,.05-.17,.61-.35,1.67-.33,1.49-.85,2.78-1.55,3.88-.71,1.1-1.48,1.89-2.31,2.36-.83,.47-1.71,.79-2.62,.94-.92,.16-1.73,0-2.43-.45-.48,1.86-1.26,3.57-2.35,5.13-1.09,1.56-2.29,2.78-3.61,3.66-1.32,.88-2.71,1.53-4.18,1.94-1.47,.41-2.81,.38-4.04-.08-1.23-.47-2.29-1.27-3.19-2.4-.9-1.13-1.45-2.79-1.64-4.98-.19-2.18,0-4.79,.61-7.81,.27-1.48,.88-4.32,1.82-8.52,.46-2.18,1.22-3.78,2.28-4.81,1.05-1.03,2.3-1.53,3.76-1.49,1.45,.04,3.08,.35,4.89,.93-.23,1.11-.49,2.35-.77,3.7-.28,1.35-.52,2.57-.73,3.66-.21,1.09-.46,2.32-.77,3.7-.3,1.38-.55,2.6-.73,3.66-.73,4.19-.77,6.84-.13,7.95,.64,1.12,1.62,.92,2.95-.6,1.33-1.51,2.27-3.6,2.83-6.25,.04-.26,.11-.66,.2-1.19,.23,.63,.59,1.17,1.07,1.63-.57-1.57-.93-3.61-1.08-6.14-.15-2.53-.01-5.09,.42-7.69,.43-2.6,1.15-4.46,2.18-5.6,.61-.81,1.38-1.13,2.31-.97,.93,.16,1.46,.9,1.6,2.21,.15,1.53-.41,5-1.68,10.41Z"/><path class="cls-2" d="M293.1,493.89c-.84,2.22-2.05,4.15-3.63,5.82-1.58,1.66-3.46,2.96-5.65,3.88-2.19,.93-4.57,1.42-7.15,1.47-3.16,.06-5.64-.81-7.44-2.6-1.8-1.79-2.77-3.99-2.94-6.6-.16-2.61,.26-5.35,1.25-8.23,1-2.87,2.47-5.37,4.42-7.48,1.42-1.53,2.84-2.73,4.27-3.6,1.42-.87,2.7-1.36,3.83-1.47,1.13-.11,2.19,.01,3.16,.35,.98,.34,1.81,.88,2.49,1.62,.69,.74,1.23,1.57,1.62,2.49,.4,.92,.62,1.86,.68,2.81,.11,2.64-.9,5.19-3.03,7.68-2.13,2.48-4.49,3.7-7.07,3.65-.47,0-1.27-.16-2.37-.47,.42,.53,.87,.9,1.35,1.1,.16,1.16,.53,2.11,1.11,2.85,.58,.74,1.31,1.18,2.18,1.34,.87,.16,1.79,.08,2.77-.24,.97-.32,2-.94,3.08-1.86,1.08-.92,2.07-2.1,2.96-3.52,1.05-1.64,1.84-3.61,2.36-5.93,.05-.26,.1-.49,.16-.67,.05-.18,.13-.37,.24-.55,.1-.18,.17-.32,.2-.4,.03-.08,.12-.16,.28-.24,.16-.08,.26-.13,.32-.16,.05-.03,.21-.05,.47-.08,.26-.03,.46-.04,.59-.04,.13,0,.41,.01,.83,.04,.42,.03,.76,.04,1.03,.04-1.15,4.8-1.94,7.81-2.36,9.02Zm-12.51-11.53c-1.11,1.16-2.08,2.98-2.92,5.46,3.11,.21,5.14-.75,6.09-2.86,.58-1.37,.52-2.48-.16-3.32-.79-.89-1.79-.66-3,.72Z"/><path class="cls-2" d="M316.26,494.56c-1.35,3.34-3.5,5.98-6.45,7.91-2.95,1.93-6.37,2.87-10.28,2.83-3.16-.03-5.62-.96-7.37-2.8-1.75-1.84-2.67-4.06-2.76-6.68-.09-2.61,.4-5.34,1.47-8.19,1.07-2.85,2.61-5.3,4.62-7.36,2.16-2.21,4.27-3.66,6.32-4.35,2.05-.69,3.75-.71,5.1-.07,1.35,.64,2.45,1.6,3.29,2.89,.84,1.29,1.26,2.67,1.28,4.15,.02,1.27-.24,2.34-.79,3.22-.55,.88-1.2,1.42-1.94,1.61-.74,.19-1.53,.01-2.36-.53,.75-.51,1.07-1.63,.96-3.38-.01-1.69-.49-2.47-1.44-2.33-.53,.04-1.16,.43-1.89,1.18-.73,.75-1.32,1.59-1.76,2.53-2.67,5.31-3.11,9.26-1.33,11.83,1.22,1.88,3.08,2.35,5.58,1.41,2.08-.79,3.96-2.46,5.66-5,1.09-1.61,1.94-3.56,2.52-5.87,.29-1.05,.58-1.66,.88-1.84,.29-.18,1.05-.25,2.26-.22,.42,.06,.76,.1,1.03,.11-1.28,4.77-2.15,7.75-2.6,8.95Z"/><path class="cls-2" d="M339.36,495.85c-.96,2.17-2.27,4.04-3.93,5.61-1.67,1.58-3.62,2.77-5.85,3.58-2.23,.81-4.64,1.17-7.22,1.09-3.16-.11-5.59-1.11-7.29-2.99-1.7-1.88-2.56-4.13-2.58-6.75-.02-2.61,.54-5.33,1.69-8.15,1.15-2.82,2.75-5.23,4.81-7.23,1.5-1.45,2.99-2.58,4.45-3.37,1.47-.79,2.77-1.21,3.91-1.26,1.14-.05,2.18,.13,3.14,.52,.96,.39,1.76,.98,2.4,1.75,.65,.77,1.14,1.63,1.49,2.57,.35,.94,.52,1.89,.53,2.84-.03,2.64-1.18,5.14-3.44,7.5-2.26,2.36-4.68,3.45-7.26,3.26-.47-.02-1.26-.22-2.34-.6,.39,.55,.82,.94,1.29,1.18,.1,1.17,.42,2.13,.96,2.9,.54,.77,1.24,1.25,2.1,1.46s1.78,.17,2.78-.09c.99-.27,2.05-.83,3.18-1.7,1.13-.86,2.17-1.98,3.14-3.36,1.14-1.58,2.03-3.51,2.68-5.8,.07-.26,.13-.48,.19-.66,.06-.18,.15-.36,.27-.54,.11-.18,.19-.31,.22-.38,.03-.08,.13-.15,.29-.22,.16-.07,.27-.12,.32-.14,.05-.02,.21-.04,.48-.05,.26-.01,.46-.02,.59,0,.13,0,.41,.03,.83,.08,.42,.05,.76,.08,1.03,.09-1.41,4.73-2.35,7.69-2.84,8.88Zm-11.88-12.18c-1.17,1.1-2.23,2.87-3.21,5.3,3.09,.37,5.17-.47,6.23-2.53,.65-1.34,.65-2.45,.01-3.33-.74-.94-1.76-.75-3.04,.55Z"/><path class="cls-2" d="M340.6,481.04c-1.15-.78-1.89-1.63-2.21-2.56-.32-.92-.31-1.77,.04-2.54,.35-.77,.89-1.44,1.63-2.01,.67-.47,1.38-.72,2.12-.74,.74-.02,1.4,.18,1.98,.59,.57,.42,.98,1.02,1.2,1.8,.23,.79,.13,1.8-.28,3.03-.58-.05-1.25-.21-2.02-.48,.39,.45,.97,.74,1.76,.85,.78,.12,1.52,.11,2.22-.02,.7-.13,1.5-.3,2.42-.52,.92-.22,1.51-.37,1.78-.45,2.67-.31,4.88,.48,6.63,2.4,1.75,1.91,2.27,4.32,1.56,7.23-.18,.89-.44,1.86-.79,2.91-.35,1.06-.73,2.22-1.15,3.48-.42,1.26-.73,2.23-.95,2.9-1.21,3.82-1.25,5.74-.15,5.78,.84,.02,1.82-.89,2.91-2.7,.43-.81,.79-1.63,1.07-2.45,.21-.62,.54-1.69,1.01-3.21,.47-1.52,.84-2.7,1.12-3.52,.07-.26,.14-.46,.21-.62,.06-.15,.13-.31,.2-.46,.06-.15,.14-.28,.23-.38,.09-.1,.16-.19,.22-.26,.06-.07,.17-.12,.33-.13,.16-.01,.28-.03,.36-.05,.08-.02,.24-.03,.48-.04,.24,0,.42,0,.56,0,.13,.01,.38,.04,.75,.1,.37,.06,.68,.09,.94,.12-1.2,3.71-2.18,6.75-2.95,9.13-1.7,5.37-4.5,8.63-8.4,9.8-2.92,.82-5.44,.25-7.56-1.72-2.26-2.14-2.83-4.93-1.71-8.39,2.04-6.34,3.21-10.35,3.5-12.02,.32-1.4,.28-2.32-.14-2.75-.42-.43-1.12-.58-2.11-.45-.99,.13-2.18,.04-3.59-.29-.97,2.88-1.77,5.25-2.39,7.11-.5,1.65-.9,2.92-1.18,3.79-.27,.77-.81,1.32-1.6,1.66-.79,.33-1.65,.33-2.58,0,1.07-3.46,1.64-5.24,1.7-5.34,.71-2.22,1.65-5.08,2.83-8.58Z"/><path class="cls-2" d="M380.73,490.7c-.38,1.07-.92,2.62-1.63,4.64-.71,2.02-1.22,3.49-1.53,4.41-1.82,5.33-4.69,8.53-8.62,9.61-2.94,.76-5.45,.13-7.52-1.89-2.21-2.19-2.72-5-1.52-8.42,.4-1.28,.89-2.76,1.49-4.42,.59-1.66,1.18-3.32,1.74-4.99,.57-1.66,1.05-3.14,1.45-4.42,.74-2.1,1.71-3.59,2.88-4.47,1.18-.89,2.48-1.22,3.92-.99,1.43,.23,3.01,.72,4.74,1.48-.98,2.81-2.91,8.5-5.81,17.05-1.34,3.73-1.43,5.66-.28,5.78,.84,.03,1.84-.84,2.97-2.64,.45-.8,.83-1.61,1.12-2.43,1.14-3.33,1.9-5.56,2.28-6.68,.08-.26,.15-.47,.23-.65,.07-.18,.16-.35,.25-.53,.1-.18,.18-.3,.24-.37,.06-.07,.17-.14,.34-.2s.28-.1,.33-.13c.05-.02,.21-.03,.48-.03,.26,0,.46,0,.59,.02,.13,.01,.4,.06,.82,.12,.42,.07,.76,.12,1.02,.14Zm-6.98-21.07c1.3-.24,2.47-.04,3.52,.6,1.05,.64,1.68,1.54,1.91,2.7,.22,1.16-.04,2.23-.81,3.22-.76,.98-1.77,1.59-3.01,1.84-.91,.12-1.74,.07-2.49-.14-.75-.21-1.4-.61-1.94-1.19-.55-.59-.89-1.26-1.03-2.01-.2-1.13,.08-2.19,.84-3.17,.76-.98,1.77-1.59,3.01-1.84Z"/><path class="cls-2" d="M406.11,495.93c.08-.25,.17-.47,.24-.65,.07-.18,.15-.34,.22-.49,.07-.15,.15-.26,.24-.33s.17-.15,.23-.25c.06-.1,.18-.15,.34-.16,.16,0,.28-.02,.36-.03,.08-.02,.24,0,.48,.02s.42,.05,.55,.07c.13,.02,.38,.05,.75,.1,.37,.05,.68,.09,.94,.12-.87,2.23-2,5.22-3.39,8.97-.96,2.48-2.16,4.52-3.62,6.11-1.45,1.59-2.94,2.61-4.46,3.05-1.52,.44-2.99,.53-4.42,.27-1.43-.26-2.65-.9-3.66-1.91-1.01-1.01-1.67-2.22-1.96-3.64-3.01,2.7-6.08,3.84-9.21,3.44-3.76-.48-5.83-2.82-6.19-7.02-.36-4.19,.87-8.61,3.7-13.24,2.87-4.57,6.2-7.25,9.97-8.04,1.09-.23,2.14-.28,3.13-.15,2.56,.33,4.36,1.6,5.41,3.81,1.14-1.82,2.63-2.77,4.47-2.85,1.84-.08,3.8,.49,5.88,1.71-.58,1.63-1.58,4.31-2.99,8.07-1.41,3.75-2.52,6.69-3.33,8.82-1.38,3.7-1.49,5.6-.34,5.7,.84,.06,1.86-.8,3.04-2.56,.47-.74,.86-1.54,1.19-2.4,.52-1.53,1.33-3.71,2.44-6.54Zm-20.82,8.08c1.26,.16,2.86-1.55,4.81-5.12,2.22-4.02,3.21-7.19,2.98-9.5-.15-.92-.56-1.45-1.23-1.59-1.62-.21-3.35,1.67-5.19,5.63-1.83,3.86-2.62,6.92-2.38,9.18,.1,.86,.44,1.33,1.01,1.41Z"/><path class="cls-2" d="M426.41,499.6c8.98-1.75,15.29-.64,18.93,3.31,2.24,2.48,2.92,5.35,2.02,8.62-.81,3.07-2.66,5.13-5.58,6.17-2.28,.78-4.8,.66-7.56-.36,3.33-5.89,1.81-9.91-4.56-12.04-.76-.24-1.66-.45-2.7-.63l.93,.64c-.59,1.82-1.93,3.68-4.02,5.56-1.27,1.12-2.56,2.03-3.89,2.73-1.33,.7-3.06,1.22-5.21,1.54-3.91,.65-6.62-.09-8.12-2.22-1.33-1.89-1.02-3.98,.93-6.26,1.75-2.05,4.52-3.68,8.32-4.89-4.07-.6-6.8-1.64-8.2-3.12-1.16-1.33-1.51-2.75-1.06-4.28,.45-1.53,1.39-2.95,2.8-4.29,1.41-1.33,3.02-2.4,4.82-3.21,4.39-1.85,8.78-2.32,13.17-1.39,3.92,.85,6.03,2.55,6.33,5.12,.12,1.47-.37,3.04-1.47,4.72-.49,.66-1.35,1.42-2.57,2.28-.28-1.44-1.48-2.57-3.58-3.4-2.1-.82-4.24-1.14-6.41-.96-2.17,.18-3.49,.79-3.93,1.84-.2,.55-.11,1.01,.28,1.37,.39,.36,1.03,.63,1.9,.82,.88,.18,1.78,.35,2.72,.52,.93,.16,1.93,.38,2.98,.64,1.05,.26,1.86,.61,2.43,1.03,.1,.02,.2,.06,.3,.13Z"/></g><g><path class="cls-2" d="M220.88,535.95c-1.3,3.16-2.66,7.92-4.08,14.26-1.43,6.35-2.62,13.15-3.58,20.41-.96,7.26-.74,13.43,.68,18.51,1.41,5.07,4.21,7.38,8.41,6.9,2.56-.35,5-1.91,7.3-4.67,2.3-2.76,4.21-6.04,5.72-9.83,1.51-3.79,2.79-7.94,3.82-12.46,2.38-10.49,4.84-19.66,7.37-27.52,4-12.2,9.78-20.45,17.33-24.78,5.07-2.92,9.83-3.57,14.29-1.95,3.42,1.22,5.49,3.37,6.19,6.43,.93,3.95-.86,7.89-5.38,11.82-.35,.29-.7,.58-1.04,.87-.31-3.41-1.89-5.38-4.73-5.91-2.04-.37-4.06-.04-6.07,1.01-2.01,1.05-3.78,2.5-5.3,4.36-1.53,1.86-2.95,4.02-4.27,6.47-1.32,2.45-2.39,4.77-3.21,6.94-.82,2.18-1.47,4.23-1.95,6.17-2.5,9.7-3.59,19.62-3.28,29.75,.31,10.13,2,15.89,5.07,17.3-.16,1.39-.81,2.61-1.94,3.68-1.14,1.06-2.5,1.79-4.08,2.17-1.58,.38-3.19,.49-4.81,.32-1.63-.17-3.1-.81-4.43-1.93-1.33-1.12-2.19-2.59-2.59-4.41-2.29,2.6-5.21,4.5-8.77,5.7-3.56,1.19-6.84,1.53-9.84,1.02-2.84-.53-5.31-1.53-7.4-3.01-2.09-1.48-3.73-3.17-4.9-5.06-1.17-1.89-2.07-4.17-2.69-6.82-.62-2.65-1-5.21-1.13-7.69-.13-2.47-.07-5.21,.18-8.22,.25-3.01,.56-5.61,.92-7.8,.36-2.19,.82-4.58,1.37-7.16,2.1-10.1,4.72-18.49,7.86-25.18,1.57-.28,2.71-.44,3.45-.5-6.6-1.3-10.97-2.06-13.1-2.27-6.39-.63-11.61,.69-15.64,3.95-3.19,2.57-4.56,5.47-4.1,8.71,.53,3.5,3.17,6.24,7.91,8.21-2.15,.95-4.19,1.43-6.12,1.41-1.93-.01-3.76-.31-5.5-.9-1.74-.58-3.28-1.48-4.64-2.7-1.36-1.22-2.55-2.57-3.56-4.05-1.01-1.48-1.76-3.16-2.24-5.03-.48-1.87-.74-3.71-.77-5.53-.03-1.82,.28-3.68,.93-5.58,.65-1.9,1.6-3.64,2.86-5.21,1.69-2.19,3.56-3.93,5.64-5.22,2.07-1.29,4.13-2.17,6.18-2.65,2.05-.47,4.29-.6,6.71-.39,2.42,.21,4.66,.59,6.71,1.12,2.05,.53,4.3,1.34,6.76,2.43,2.46,1.08,4.6,2.1,6.42,3.05,1.82,.95,3.8,2.08,5.97,3.4,3.36-5.96,7.04-8.67,11.05-8.13,2.51,.34,4.47,1.83,5.89,4.47,1.53,2.85,1.63,5.46,.27,7.83-1.87,3.31-5.89,4.59-12.08,3.84Z"/><path class="cls-2" d="M264.26,583.01c-3.16,.03-5.46-.51-6.9-1.64-1.43-1.12-1.82-3.19-1.17-6.2,2.17-10.41,3.3-15.74,3.41-16.01,.45-2.17,1.22-3.75,2.29-4.77,1.07-1.01,2.33-1.49,3.78-1.42,1.45,.07,3.07,.38,4.87,.94l-.15,.63c1.52-1.02,3.15-1.58,4.89-1.71,1.74-.12,3.27,.14,4.59,.79,1.32,.65,2.37,1.69,3.15,3.13,.78,1.44,1.04,3.06,.8,4.86-.15,.9-.34,1.89-.57,2.97-.23,1.08-.51,2.29-.84,3.61-.33,1.32-.57,2.33-.72,3.01-.86,3.86-.74,5.75,.37,5.69,.9,0,1.78-.99,2.66-2.95,.36-.79,.64-1.64,.85-2.54,.2-.74,.47-1.88,.8-3.41,.33-1.53,.57-2.67,.72-3.41,.05-.26,.1-.49,.15-.67,.05-.18,.1-.36,.15-.52,.05-.16,.12-.28,.19-.36s.14-.16,.2-.24c.05-.08,.16-.15,.31-.2,.16-.05,.28-.09,.35-.12,.08-.03,.24-.04,.47-.04,.24,0,.43,0,.59,0h.79c.37-.01,.66-.01,.87-.02-.2,1-.54,2.55-1.02,4.64-.48,2.09-.82,3.66-1.02,4.72-.86,3.65-2.25,6.4-4.15,8.26-1.91,1.86-3.99,2.81-6.26,2.83-2.43,.02-4.41-.89-5.96-2.75-1.55-1.86-1.99-4.19-1.33-6.99,.15-.58,.43-1.73,.84-3.45,.41-1.72,.73-3.2,.99-4.44,.25-1.24,.45-2.39,.6-3.45,.24-2.16-.19-3.19-1.29-3.07-1.11,.06-2.2,1.05-3.29,2.96-.47,.9-.8,1.77-1,2.62l-.3,1.74c-2.48,11.25-3.72,16.91-3.72,16.96Z"/><path class="cls-2" d="M305.24,563.11c-.28,1.1-.69,2.69-1.22,4.77-.53,2.08-.91,3.58-1.14,4.53-1.35,5.46-3.93,8.91-7.75,10.32-2.86,1.01-5.41,.6-7.65-1.22-2.4-1.99-3.14-4.74-2.25-8.26,.28-1.31,.65-2.82,1.1-4.53,.45-1.71,.88-3.41,1.3-5.12,.42-1.71,.77-3.22,1.06-4.53,.56-2.15,1.39-3.72,2.48-4.71,1.09-.98,2.37-1.43,3.82-1.33,1.45,.1,3.06,.46,4.85,1.06-.73,2.89-2.16,8.72-4.3,17.49-1.01,3.83-.93,5.76,.23,5.78,.84-.04,1.76-1,2.73-2.89,.38-.84,.68-1.68,.91-2.52,.84-3.41,1.4-5.7,1.68-6.86,.06-.26,.11-.49,.17-.67,.05-.18,.12-.37,.21-.55,.08-.18,.15-.31,.2-.39,.05-.08,.16-.16,.32-.23,.16-.08,.27-.13,.32-.15,.05-.03,.21-.05,.48-.07,.26-.02,.46-.03,.59-.03,.13,0,.41,.02,.83,.05,.42,.03,.76,.05,1.03,.05Zm-8.79-20.38c1.27-.35,2.46-.25,3.56,.29,1.1,.54,1.81,1.38,2.14,2.52,.32,1.14,.15,2.23-.52,3.27-.68,1.05-1.62,1.74-2.84,2.09-.9,.2-1.73,.22-2.49,.08-.76-.14-1.44-.48-2.04-1.02-.6-.54-1-1.17-1.2-1.92-.3-1.11-.11-2.19,.56-3.23,.67-1.04,1.62-1.74,2.84-2.09Z"/><path class="cls-2" d="M327.39,533.01c.69-1.5,1.5-2.78,2.41-3.82,.91-1.04,1.95-1.83,3.1-2.37,1.16-.53,2.43-.69,3.82-.48,1.39,.21,2.86,.8,4.4,1.76-1.58,1.2-2.89,2.97-3.93,5.3-.64,1.4-1.26,2.9-1.88,4.51-.62,1.61-1.27,3.48-1.97,5.62-.69,2.14-1.28,3.97-1.76,5.51-.48,1.54-1.1,3.65-1.84,6.34-.74,2.69-1.27,4.58-1.57,5.68-.31,1.1-.85,3.11-1.63,6.03-.78,2.92-1.23,4.62-1.35,5.09l-.28,1.1c-.82,3.29-.7,4.91,.36,4.84,.95-.07,1.92-1.08,2.89-3.05,.35-.72,.64-1.48,.88-2.26,.13-.63,.41-1.71,.84-3.25,.43-1.54,.77-2.7,1.01-3.48,.06-.26,.12-.48,.18-.67,.06-.18,.11-.35,.14-.51,.03-.16,.1-.27,.21-.35,.11-.07,.19-.15,.25-.23,.05-.08,.15-.14,.28-.19,.13-.05,.24-.08,.32-.11,.08-.02,.25-.03,.52-.02,.26,.01,.46,.02,.59,.02,.13,0,.38,.02,.75,.03,.37,.01,.66,.03,.87,.04-.99,3.65-1.83,6.73-2.51,9.24-.74,2.56-1.76,4.69-3.07,6.41-1.31,1.72-2.7,2.86-4.17,3.43-1.48,.57-2.92,.79-4.34,.66-1.42-.14-2.69-.65-3.82-1.54-1.13-.89-1.9-2.03-2.32-3.42-2.7,2.9-5.63,4.29-8.79,4.16-3.79-.15-6.06-2.3-6.79-6.45-.73-4.14,.11-8.65,2.52-13.51,2.46-4.81,5.54-7.77,9.22-8.89,1.07-.33,2.1-.47,3.1-.43,2.42,.1,4.23,1.07,5.42,2.91,2.96-10.65,5.6-18.53,7.91-23.66Zm-16.44,42.95c1.26,.05,2.71-1.79,4.34-5.52,1.91-4.2,2.65-7.44,2.21-9.72-.23-.96-.71-1.45-1.44-1.48-1.63-.07-3.19,1.96-4.68,6.07-1.48,4-2,7.12-1.56,9.36,.18,.85,.55,1.29,1.13,1.31Z"/><path class="cls-2" d="M360.66,568.35c.07-.26,.14-.48,.21-.66,.07-.18,.13-.35,.2-.5,.06-.15,.14-.27,.22-.34,.08-.07,.16-.16,.22-.26,.06-.1,.17-.16,.33-.17,.16-.01,.28-.03,.36-.05,.08-.02,.24-.02,.48,0,.24,.02,.42,.03,.55,.04,.13,0,.38,.03,.75,.06,.37,.03,.68,.05,.95,.07-.75,2.27-1.72,5.32-2.9,9.14-.82,2.53-1.92,4.63-3.29,6.3-1.37,1.67-2.8,2.76-4.29,3.29-1.49,.52-2.96,.69-4.4,.5-1.44-.19-2.69-.76-3.76-1.71-1.07-.95-1.78-2.13-2.15-3.53-2.86,2.85-5.86,4.16-9.02,3.93-3.79-.28-5.97-2.51-6.56-6.68-.59-4.17,.41-8.64,2.99-13.42,2.63-4.72,5.8-7.58,9.52-8.57,1.08-.29,2.12-.4,3.12-.32,2.58,.19,4.44,1.36,5.61,3.51,1.04-1.88,2.48-2.91,4.31-3.09,1.84-.18,3.82,.29,5.96,1.4-.49,1.66-1.35,4.39-2.56,8.21-1.21,3.82-2.16,6.82-2.85,8.99-1.18,3.77-1.19,5.67-.03,5.71,.84,.01,1.81-.9,2.9-2.72,.43-.76,.78-1.58,1.06-2.46,.43-1.55,1.13-3.77,2.08-6.66Zm-20.35,9.18c1.26,.09,2.77-1.7,4.53-5.37,2-4.13,2.82-7.35,2.47-9.65-.2-.91-.63-1.42-1.31-1.53-1.63-.12-3.26,1.85-4.88,5.9-1.62,3.95-2.25,7.05-1.88,9.3,.15,.86,.51,1.31,1.09,1.35Z"/><path class="cls-2" d="M381.14,570.92c8.87-2.23,15.23-1.47,19.08,2.28,2.37,2.35,3.2,5.19,2.49,8.5-.64,3.11-2.38,5.26-5.23,6.46-2.23,.9-4.76,.92-7.57,.05,3.01-6.06,1.27-9.99-5.21-11.77-.77-.2-1.68-.36-2.73-.49l.96,.59c-.49,1.85-1.72,3.78-3.71,5.77-1.2,1.18-2.45,2.16-3.74,2.94-1.29,.78-2.99,1.38-5.12,1.82-3.87,.86-6.62,.27-8.23-1.78-1.43-1.82-1.23-3.92,.59-6.3,1.64-2.14,4.32-3.92,8.04-5.33-4.1-.38-6.88-1.27-8.36-2.67-1.23-1.26-1.66-2.67-1.29-4.22,.37-1.55,1.22-3.03,2.56-4.43,1.34-1.41,2.88-2.56,4.64-3.47,4.28-2.09,8.64-2.79,13.07-2.1,3.96,.63,6.16,2.22,6.6,4.77,.2,1.46-.21,3.06-1.21,4.79-.45,.69-1.27,1.49-2.44,2.42-.36-1.42-1.61-2.49-3.76-3.2-2.15-.71-4.3-.91-6.46-.61-2.16,.3-3.44,.98-3.83,2.05-.17,.56-.06,1.02,.36,1.36,.41,.34,1.06,.58,1.95,.71,.89,.13,1.8,.25,2.74,.37,.94,.11,1.94,.27,3.01,.48,1.06,.21,1.89,.5,2.48,.89,.1,.01,.21,.05,.3,.12Z"/></g><g><path class="cls-1" d="M124.28,493.71c1.29-8.16,4.21-15.87,8.76-23.13,4.55-7.27,10.26-13.32,17.13-18.16,6.87-4.84,14.12-7.78,21.75-8.81,3.34-.45,6.37-.41,9.07,.13,2.71,.54,4.96,1.44,6.75,2.72,1.79,1.27,3.26,2.86,4.39,4.75,1.13,1.9,1.86,3.95,2.19,6.17,.33,2.22,.31,4.59-.03,7.11-.35,2.52-1.04,5.01-2.06,7.46s-2.42,4.88-4.2,7.27c-1.78,2.4-3.84,4.55-6.19,6.46-2.45,1.93-4.97,3.44-7.57,4.54-2.59,1.1-5.02,1.71-7.29,1.83-2.27,.12-4.35-.22-6.24-1.03-1.89-.81-3.38-2-4.48-3.58-1.09-1.58-1.7-3.68-1.81-6.3-.12-2.62,.38-5.54,1.48-8.78,2.16,1.04,3.74,1.78,4.73,2.23,.99,.45,2.28,.92,3.86,1.39,1.58,.48,2.95,.68,4.11,.6,1.16-.08,2.51-.33,4.05-.75,1.54-.42,3.23-1.1,5.07-2.04,1.99-1.01,3.73-2.18,5.23-3.5,1.5-1.32,2.6-2.61,3.3-3.88,.71-1.26,1.12-2.52,1.25-3.76,.12-1.24-.16-2.29-.87-3.15-.7-.86-1.73-1.55-3.07-2.06-1.35-.51-3.16-.66-5.45-.46-2.29,.2-4.91,.77-7.87,1.71-7.05,2.18-12.67,5.23-16.88,9.15-2.32,2.12-4.48,4.54-6.48,7.26-2,2.72-3.75,5.78-5.26,9.17-1.51,3.4-2.56,6.82-3.15,10.28-.6,3.46-.53,7.07,.19,10.83,.72,3.76,2.19,7.3,4.39,10.62,1.86,2.73,3.98,4.93,6.36,6.6,2.38,1.67,4.73,2.74,7.06,3.19,2.32,.46,4.63,.44,6.93-.06,2.3-.5,4.34-1.44,6.12-2.82,1.78-1.39,3.26-3.22,4.44-5.51,1.18-2.29,1.87-4.86,2.07-7.7,.3-4.83-2.03-8.1-7-9.83,1.49-2.76,4.13-4.55,7.93-5.38,3.8-.83,7.05-.26,9.77,1.71,2.19,1.67,3.6,4.01,4.22,7.01,.62,3,.15,6.39-1.41,10.17-1.52,3.34-3.69,6.37-6.51,9.06-2.83,2.7-5.98,4.87-9.45,6.51-3.48,1.64-7.21,2.83-11.21,3.55-4,.73-7.87,.91-11.62,.54-3.75-.37-7.37-1.38-10.87-3.04-3.5-1.65-6.45-3.89-8.85-6.7-3.1-3.62-5.25-7.92-6.46-12.89-1.21-4.97-1.32-10.53-.34-16.67Z"/><path class="cls-1" d="M220.24,494.61c-.66,2.28-1.71,4.31-3.15,6.09-1.44,1.78-3.21,3.23-5.32,4.33-2.1,1.1-4.44,1.78-7.01,2.05-3.15,.31-5.69-.35-7.62-1.99-1.93-1.64-3.09-3.75-3.46-6.34-.37-2.59-.18-5.35,.58-8.3,.76-2.95,2.03-5.55,3.8-7.81,1.29-1.64,2.61-2.95,3.96-3.94,1.35-.98,2.58-1.57,3.7-1.77,1.12-.2,2.18-.17,3.18,.09,1,.26,1.87,.73,2.62,1.41,.74,.68,1.35,1.46,1.82,2.35,.47,.89,.77,1.8,.9,2.74,.32,2.62-.48,5.25-2.4,7.9-1.92,2.65-4.18,4.05-6.75,4.21-.47,.04-1.27-.05-2.4-.28,.46,.49,.94,.82,1.43,.99,.25,1.14,.7,2.06,1.34,2.75,.64,.69,1.4,1.07,2.28,1.16,.88,.09,1.79-.07,2.74-.46,.95-.4,1.92-1.1,2.92-2.11,1-1.01,1.89-2.26,2.67-3.75,.92-1.71,1.54-3.75,1.88-6.11,.03-.27,.06-.49,.1-.68,.04-.19,.1-.38,.19-.57,.09-.19,.14-.33,.16-.41,.02-.08,.11-.17,.26-.26,.15-.09,.25-.15,.3-.18,.05-.03,.21-.07,.47-.12,.26-.05,.46-.08,.59-.09,.13-.01,.41-.02,.83-.03,.42,0,.76-.02,1.03-.05-.76,4.88-1.3,7.94-1.62,9.18Zm-13.4-10.48c-1.01,1.25-1.83,3.14-2.47,5.68,3.12-.05,5.06-1.16,5.83-3.34,.46-1.41,.32-2.51-.43-3.3-.86-.83-1.84-.51-2.94,.96Z"/><path class="cls-1" d="M219.48,479.77c-1.25-.62-2.09-1.36-2.54-2.23-.44-.87-.54-1.71-.3-2.52,.24-.81,.69-1.54,1.34-2.21,.6-.56,1.27-.9,2-1.02,.73-.12,1.41-.01,2.04,.32,.63,.34,1.1,.88,1.44,1.62,.33,.75,.37,1.76,.13,3.04-.58,.03-1.27-.04-2.07-.2,.44,.4,1.06,.6,1.86,.61,.79,0,1.53-.1,2.2-.32,.67-.22,1.45-.5,2.33-.84,.88-.34,1.45-.57,1.7-.69,2.6-.67,4.9-.18,6.89,1.48,1.99,1.66,2.83,3.97,2.52,6.95-.06,.9-.19,1.9-.39,2.99-.2,1.09-.43,2.29-.67,3.6-.24,1.31-.43,2.31-.55,3-.68,3.95-.47,5.86,.64,5.75,.84-.1,1.68-1.12,2.52-3.07,.32-.86,.56-1.72,.73-2.57,.12-.64,.31-1.75,.57-3.32,.26-1.57,.47-2.78,.63-3.64,.04-.27,.08-.48,.12-.64,.04-.16,.09-.32,.13-.48,.04-.16,.1-.3,.18-.41,.07-.11,.13-.21,.18-.29,.05-.08,.15-.14,.31-.18,.16-.03,.27-.07,.35-.1,.08-.03,.23-.06,.47-.11,.24-.04,.42-.06,.55-.07,.13,0,.38,0,.75,0,.37,0,.69,0,.95-.01-.69,3.84-1.25,6.99-1.69,9.44-.96,5.55-3.29,9.16-7,10.84-2.78,1.21-5.36,.98-7.72-.68-2.53-1.81-3.47-4.51-2.82-8.08,1.17-6.56,1.78-10.69,1.85-12.38,.13-1.43-.04-2.33-.51-2.7-.47-.37-1.19-.42-2.15-.16-.96,.27-2.16,.33-3.59,.2-.57,2.99-1.04,5.44-1.41,7.36-.28,1.71-.49,3.01-.65,3.92-.17,.8-.62,1.42-1.36,1.86-.74,.44-1.59,.55-2.56,.34,.59-3.57,.91-5.41,.96-5.52,.4-2.29,.95-5.25,1.64-8.88Z"/><path class="cls-1" d="M262.62,483.75l-.62,3.42c-.36,2.23,.01,3.27,1.12,3.13,.95-.08,1.74-.84,2.39-2.28,.2-.43,.34-.88,.44-1.36,.05-.16,.12-.42,.21-.8,.04-.26,.09-.48,.14-.64,.05-.16,.08-.32,.11-.48,.02-.16,.08-.29,.19-.4,.1-.11,.18-.2,.23-.28,.05-.08,.14-.13,.27-.17,.13-.03,.24-.06,.31-.09,.08-.03,.25-.05,.51-.05,.26,0,.46-.03,.59-.06,.13-.03,.38-.04,.75-.02,.37,.02,.66,.02,.87,.01-.18,1.01-.27,1.54-.27,1.59-.05,.05-.17,.61-.35,1.67-.33,1.49-.85,2.78-1.55,3.88-.71,1.1-1.48,1.89-2.31,2.36-.83,.47-1.71,.79-2.62,.94-.92,.16-1.73,0-2.43-.45-.48,1.86-1.26,3.57-2.35,5.13-1.09,1.56-2.29,2.78-3.61,3.66-1.32,.88-2.71,1.53-4.18,1.94-1.47,.41-2.81,.38-4.04-.08-1.23-.47-2.29-1.27-3.19-2.4-.9-1.13-1.45-2.79-1.64-4.98-.19-2.18,0-4.79,.61-7.81,.27-1.48,.88-4.32,1.82-8.52,.46-2.18,1.22-3.78,2.28-4.81,1.05-1.03,2.3-1.53,3.76-1.49,1.45,.04,3.08,.35,4.89,.93-.23,1.11-.49,2.35-.77,3.7-.28,1.35-.52,2.57-.73,3.66-.21,1.09-.46,2.32-.77,3.7-.3,1.38-.55,2.6-.73,3.66-.73,4.19-.77,6.84-.13,7.95,.64,1.12,1.62,.92,2.95-.6,1.33-1.51,2.27-3.6,2.83-6.25,.04-.26,.11-.66,.2-1.19,.23,.63,.59,1.17,1.07,1.63-.57-1.57-.93-3.61-1.08-6.14-.15-2.53-.01-5.09,.42-7.69,.43-2.6,1.15-4.46,2.18-5.6,.61-.81,1.38-1.13,2.31-.97,.93,.16,1.46,.9,1.6,2.21,.15,1.53-.41,5-1.68,10.41Z"/><path class="cls-1" d="M291.25,492.83c-.84,2.22-2.05,4.15-3.63,5.82-1.58,1.66-3.46,2.96-5.65,3.88-2.19,.93-4.57,1.42-7.15,1.47-3.16,.06-5.64-.81-7.44-2.6-1.8-1.79-2.77-3.99-2.94-6.6-.16-2.61,.26-5.35,1.25-8.23,1-2.87,2.47-5.37,4.42-7.48,1.42-1.53,2.84-2.73,4.27-3.6,1.42-.87,2.7-1.36,3.83-1.47,1.13-.11,2.19,.01,3.16,.35,.98,.34,1.81,.88,2.49,1.62,.69,.74,1.23,1.57,1.62,2.49,.4,.92,.62,1.86,.68,2.81,.11,2.64-.9,5.19-3.03,7.68-2.13,2.48-4.49,3.7-7.07,3.65-.47,0-1.27-.16-2.37-.47,.42,.53,.87,.9,1.35,1.1,.16,1.16,.53,2.11,1.11,2.85,.58,.74,1.31,1.18,2.18,1.34,.87,.16,1.79,.08,2.77-.24,.97-.32,2-.94,3.08-1.86,1.08-.92,2.07-2.1,2.96-3.52,1.05-1.64,1.84-3.61,2.36-5.93,.05-.26,.1-.49,.16-.67,.05-.18,.13-.37,.24-.55,.1-.18,.17-.32,.2-.4,.03-.08,.12-.16,.28-.24,.16-.08,.26-.13,.32-.16,.05-.03,.21-.05,.47-.08,.26-.03,.46-.04,.59-.04,.13,0,.41,.01,.83,.04,.42,.03,.76,.04,1.03,.04-1.15,4.8-1.94,7.81-2.36,9.02Zm-12.51-11.53c-1.11,1.16-2.08,2.98-2.92,5.46,3.11,.21,5.14-.75,6.09-2.86,.58-1.37,.52-2.48-.16-3.32-.79-.89-1.79-.66-3,.72Z"/><path class="cls-1" d="M314.4,493.5c-1.35,3.34-3.5,5.98-6.45,7.91-2.95,1.93-6.37,2.87-10.28,2.83-3.16-.03-5.62-.96-7.37-2.8-1.75-1.84-2.67-4.06-2.76-6.68-.09-2.61,.4-5.34,1.47-8.19,1.07-2.85,2.61-5.3,4.62-7.36,2.16-2.21,4.27-3.66,6.32-4.35,2.05-.69,3.75-.71,5.1-.07,1.35,.64,2.45,1.6,3.29,2.89,.84,1.29,1.26,2.67,1.28,4.15,.02,1.27-.24,2.34-.79,3.22-.55,.88-1.2,1.42-1.94,1.61-.74,.19-1.53,.01-2.36-.53,.75-.51,1.07-1.63,.96-3.38-.01-1.69-.49-2.47-1.44-2.33-.53,.04-1.16,.43-1.89,1.18-.73,.75-1.32,1.59-1.76,2.53-2.67,5.31-3.11,9.26-1.33,11.83,1.22,1.88,3.08,2.35,5.58,1.41,2.08-.79,3.96-2.46,5.66-5,1.09-1.61,1.94-3.56,2.52-5.87,.29-1.05,.58-1.66,.88-1.84,.29-.18,1.05-.25,2.26-.22,.42,.06,.76,.1,1.03,.11-1.28,4.77-2.15,7.75-2.6,8.95Z"/><path class="cls-1" d="M337.5,494.79c-.96,2.17-2.27,4.04-3.93,5.61-1.67,1.58-3.62,2.77-5.85,3.58-2.23,.81-4.64,1.17-7.22,1.09-3.16-.11-5.59-1.11-7.29-2.99-1.7-1.88-2.56-4.13-2.58-6.75-.02-2.61,.54-5.33,1.69-8.15,1.15-2.82,2.75-5.23,4.81-7.23,1.5-1.45,2.99-2.58,4.45-3.37,1.47-.79,2.77-1.21,3.91-1.26,1.14-.05,2.18,.13,3.14,.52,.96,.39,1.76,.98,2.4,1.75,.65,.77,1.14,1.63,1.49,2.57,.35,.94,.52,1.89,.53,2.84-.03,2.64-1.18,5.14-3.44,7.5-2.26,2.36-4.68,3.45-7.26,3.26-.47-.02-1.26-.22-2.34-.6,.39,.55,.82,.94,1.29,1.18,.1,1.17,.42,2.13,.96,2.9,.54,.77,1.24,1.25,2.1,1.46s1.78,.17,2.78-.09c.99-.27,2.05-.83,3.18-1.7,1.13-.86,2.17-1.98,3.14-3.36,1.14-1.58,2.03-3.51,2.68-5.8,.07-.26,.13-.48,.19-.66,.06-.18,.15-.36,.27-.54,.11-.18,.19-.31,.22-.38,.03-.08,.13-.15,.29-.22,.16-.07,.27-.12,.32-.14,.05-.02,.21-.04,.48-.05,.26-.01,.46-.02,.59,0,.13,0,.41,.03,.83,.08,.42,.05,.76,.08,1.03,.09-1.41,4.73-2.35,7.69-2.84,8.88Zm-11.88-12.18c-1.17,1.1-2.23,2.87-3.21,5.3,3.09,.37,5.17-.47,6.23-2.53,.65-1.34,.65-2.45,.01-3.33-.74-.94-1.76-.75-3.04,.55Z"/><path class="cls-1" d="M338.75,479.98c-1.15-.78-1.89-1.63-2.21-2.56-.32-.92-.31-1.77,.04-2.54,.35-.77,.89-1.44,1.63-2.01,.67-.47,1.38-.72,2.12-.74,.74-.02,1.4,.18,1.98,.59,.57,.42,.98,1.02,1.2,1.8,.23,.79,.13,1.8-.28,3.03-.58-.05-1.25-.21-2.02-.48,.39,.45,.97,.74,1.76,.85,.78,.12,1.52,.11,2.22-.02,.7-.13,1.5-.3,2.42-.52,.92-.22,1.51-.37,1.78-.45,2.67-.31,4.88,.48,6.63,2.4,1.75,1.91,2.27,4.32,1.56,7.23-.18,.89-.44,1.86-.79,2.91-.35,1.06-.73,2.22-1.15,3.48-.42,1.26-.73,2.23-.95,2.9-1.21,3.82-1.25,5.74-.15,5.78,.84,.02,1.82-.89,2.91-2.7,.43-.81,.79-1.63,1.07-2.45,.21-.62,.54-1.69,1.01-3.21,.47-1.52,.84-2.7,1.12-3.52,.07-.26,.14-.46,.21-.62,.06-.15,.13-.31,.2-.46,.06-.15,.14-.28,.23-.38,.09-.1,.16-.19,.22-.26,.06-.07,.17-.12,.33-.13,.16-.01,.28-.03,.36-.05,.08-.02,.24-.03,.48-.04,.24,0,.42,0,.56,0,.13,.01,.38,.04,.75,.1,.37,.06,.68,.09,.94,.12-1.2,3.71-2.18,6.75-2.95,9.13-1.7,5.37-4.5,8.63-8.4,9.8-2.92,.82-5.44,.25-7.56-1.72-2.26-2.14-2.83-4.93-1.71-8.39,2.04-6.34,3.21-10.35,3.5-12.02,.32-1.4,.28-2.32-.14-2.75-.42-.43-1.12-.58-2.11-.45-.99,.13-2.18,.04-3.59-.29-.97,2.88-1.77,5.25-2.39,7.11-.5,1.65-.9,2.92-1.18,3.79-.27,.77-.81,1.32-1.6,1.66-.79,.33-1.65,.33-2.58,0,1.07-3.46,1.64-5.24,1.7-5.34,.71-2.22,1.65-5.08,2.83-8.58Z"/><path class="cls-1" d="M378.88,489.64c-.38,1.07-.92,2.62-1.63,4.64-.71,2.02-1.22,3.49-1.53,4.41-1.82,5.33-4.69,8.53-8.62,9.61-2.94,.76-5.45,.13-7.52-1.89-2.21-2.19-2.72-5-1.52-8.42,.4-1.28,.89-2.76,1.49-4.42,.59-1.66,1.18-3.32,1.74-4.99,.57-1.66,1.05-3.14,1.45-4.42,.74-2.1,1.71-3.59,2.88-4.47,1.18-.89,2.48-1.22,3.92-.99,1.43,.23,3.01,.72,4.74,1.48-.98,2.81-2.91,8.5-5.81,17.05-1.34,3.73-1.43,5.66-.28,5.78,.84,.03,1.84-.84,2.97-2.64,.45-.8,.83-1.61,1.12-2.43,1.14-3.33,1.9-5.56,2.28-6.68,.08-.26,.15-.47,.23-.65,.07-.18,.16-.35,.25-.53,.1-.18,.18-.3,.24-.37,.06-.07,.17-.14,.34-.2s.28-.1,.33-.13c.05-.02,.21-.03,.48-.03,.26,0,.46,0,.59,.02,.13,.01,.4,.06,.82,.12,.42,.07,.76,.12,1.02,.14Zm-6.98-21.07c1.3-.24,2.47-.04,3.52,.6,1.05,.64,1.68,1.54,1.91,2.7,.22,1.16-.04,2.23-.81,3.22-.76,.98-1.77,1.59-3.01,1.84-.91,.12-1.74,.07-2.49-.14-.75-.21-1.4-.61-1.94-1.19-.55-.59-.89-1.26-1.03-2.01-.2-1.13,.08-2.19,.84-3.17,.76-.98,1.77-1.59,3.01-1.84Z"/><path class="cls-1" d="M404.26,494.86c.08-.25,.17-.47,.24-.65,.07-.18,.15-.34,.22-.49,.07-.15,.15-.26,.24-.33s.17-.15,.23-.25c.06-.1,.18-.15,.34-.16,.16,0,.28-.02,.36-.03,.08-.02,.24,0,.48,.02s.42,.05,.55,.07c.13,.02,.38,.05,.75,.1,.37,.05,.68,.09,.94,.12-.87,2.23-2,5.22-3.39,8.97-.96,2.48-2.16,4.52-3.62,6.11-1.45,1.59-2.94,2.61-4.46,3.05-1.52,.44-2.99,.53-4.42,.27-1.43-.26-2.65-.9-3.66-1.91-1.01-1.01-1.67-2.22-1.96-3.64-3.01,2.7-6.08,3.84-9.21,3.44-3.76-.48-5.83-2.82-6.19-7.02-.36-4.19,.87-8.61,3.7-13.24,2.87-4.57,6.2-7.25,9.97-8.04,1.09-.23,2.14-.28,3.13-.15,2.56,.33,4.36,1.6,5.41,3.81,1.14-1.82,2.63-2.77,4.47-2.85,1.84-.08,3.8,.49,5.88,1.71-.58,1.63-1.58,4.31-2.99,8.07-1.41,3.75-2.52,6.69-3.33,8.82-1.38,3.7-1.49,5.6-.34,5.7,.84,.06,1.86-.8,3.04-2.56,.47-.74,.86-1.54,1.19-2.4,.52-1.53,1.33-3.71,2.44-6.54Zm-20.82,8.08c1.26,.16,2.86-1.55,4.81-5.12,2.22-4.02,3.21-7.19,2.98-9.5-.15-.92-.56-1.45-1.23-1.59-1.62-.21-3.35,1.67-5.19,5.63-1.83,3.86-2.62,6.92-2.38,9.18,.1,.86,.44,1.33,1.01,1.41Z"/><path class="cls-1" d="M424.56,498.54c8.98-1.75,15.29-.64,18.93,3.31,2.24,2.48,2.92,5.35,2.02,8.62-.81,3.07-2.66,5.13-5.58,6.17-2.28,.78-4.8,.66-7.56-.36,3.33-5.89,1.81-9.91-4.56-12.04-.76-.24-1.66-.45-2.7-.63l.93,.64c-.59,1.82-1.93,3.68-4.02,5.56-1.27,1.12-2.56,2.03-3.89,2.73-1.33,.7-3.06,1.22-5.21,1.54-3.91,.65-6.62-.09-8.12-2.22-1.33-1.89-1.02-3.98,.93-6.26,1.75-2.05,4.52-3.68,8.32-4.89-4.07-.6-6.8-1.64-8.2-3.12-1.16-1.33-1.51-2.75-1.06-4.28,.45-1.53,1.39-2.95,2.8-4.29,1.41-1.33,3.02-2.4,4.82-3.21,4.39-1.85,8.78-2.32,13.17-1.39,3.92,.85,6.03,2.55,6.33,5.12,.12,1.47-.37,3.04-1.47,4.72-.49,.66-1.35,1.42-2.57,2.28-.28-1.44-1.48-2.57-3.58-3.4-2.1-.82-4.24-1.14-6.41-.96-2.17,.18-3.49,.79-3.93,1.84-.2,.55-.11,1.01,.28,1.37,.39,.36,1.03,.63,1.9,.82,.88,.18,1.78,.35,2.72,.52,.93,.16,1.93,.38,2.98,.64,1.05,.26,1.86,.61,2.43,1.03,.1,.02,.2,.06,.3,.13Z"/></g><g><path class="cls-1" d="M219.02,534.89c-1.3,3.16-2.66,7.92-4.08,14.26-1.43,6.35-2.62,13.15-3.58,20.41-.96,7.26-.74,13.43,.68,18.51,1.41,5.07,4.21,7.38,8.41,6.9,2.56-.35,5-1.91,7.3-4.67,2.3-2.76,4.21-6.04,5.72-9.83,1.51-3.79,2.79-7.94,3.82-12.46,2.38-10.49,4.84-19.66,7.37-27.52,4-12.2,9.78-20.45,17.33-24.78,5.07-2.92,9.83-3.57,14.29-1.95,3.42,1.22,5.49,3.37,6.19,6.43,.93,3.95-.86,7.89-5.38,11.82-.35,.29-.7,.58-1.04,.87-.31-3.41-1.89-5.38-4.73-5.91-2.04-.37-4.06-.04-6.07,1.01-2.01,1.05-3.78,2.5-5.3,4.36-1.53,1.86-2.95,4.02-4.27,6.47-1.32,2.45-2.39,4.77-3.21,6.94-.82,2.18-1.47,4.23-1.95,6.17-2.5,9.7-3.59,19.62-3.28,29.75,.31,10.13,2,15.89,5.07,17.3-.16,1.39-.81,2.61-1.94,3.68-1.14,1.06-2.5,1.79-4.08,2.17-1.58,.38-3.19,.49-4.81,.32-1.63-.17-3.1-.81-4.43-1.93-1.33-1.12-2.19-2.59-2.59-4.41-2.29,2.6-5.21,4.5-8.77,5.7-3.56,1.19-6.84,1.53-9.84,1.02-2.84-.53-5.31-1.53-7.4-3.01-2.09-1.48-3.73-3.17-4.9-5.06-1.17-1.89-2.07-4.17-2.69-6.82-.62-2.65-1-5.21-1.13-7.69-.13-2.47-.07-5.21,.18-8.22,.25-3.01,.56-5.61,.92-7.8,.36-2.19,.82-4.58,1.37-7.16,2.1-10.1,4.72-18.49,7.86-25.18,1.57-.28,2.71-.44,3.45-.5-6.6-1.3-10.97-2.06-13.1-2.27-6.39-.63-11.61,.69-15.64,3.95-3.19,2.57-4.56,5.47-4.1,8.71,.53,3.5,3.17,6.24,7.91,8.21-2.15,.95-4.19,1.43-6.12,1.41-1.93-.01-3.76-.31-5.5-.9-1.74-.58-3.28-1.48-4.64-2.7-1.36-1.22-2.55-2.57-3.56-4.05-1.01-1.48-1.76-3.16-2.24-5.03-.48-1.87-.74-3.71-.77-5.53-.03-1.82,.28-3.68,.93-5.58,.65-1.9,1.6-3.64,2.86-5.21,1.69-2.19,3.56-3.93,5.64-5.22,2.07-1.29,4.13-2.17,6.18-2.65,2.05-.47,4.29-.6,6.71-.39,2.42,.21,4.66,.59,6.71,1.12,2.05,.53,4.3,1.34,6.76,2.43,2.46,1.08,4.6,2.1,6.42,3.05,1.82,.95,3.8,2.08,5.97,3.4,3.36-5.96,7.04-8.67,11.05-8.13,2.51,.34,4.47,1.83,5.89,4.47,1.53,2.85,1.63,5.46,.27,7.83-1.87,3.31-5.89,4.59-12.08,3.84Z"/><path class="cls-1" d="M262.41,581.95c-3.16,.03-5.46-.51-6.9-1.64-1.43-1.12-1.82-3.19-1.17-6.2,2.17-10.41,3.3-15.74,3.41-16.01,.45-2.17,1.22-3.75,2.29-4.77,1.07-1.01,2.33-1.49,3.78-1.42,1.45,.07,3.07,.38,4.87,.94l-.15,.63c1.52-1.02,3.15-1.58,4.89-1.71,1.74-.12,3.27,.14,4.59,.79,1.32,.65,2.37,1.69,3.15,3.13,.78,1.44,1.04,3.06,.8,4.86-.15,.9-.34,1.89-.57,2.97-.23,1.08-.51,2.29-.84,3.61-.33,1.32-.57,2.33-.72,3.01-.86,3.86-.74,5.75,.37,5.69,.9,0,1.78-.99,2.66-2.95,.36-.79,.64-1.64,.85-2.54,.2-.74,.47-1.88,.8-3.41,.33-1.53,.57-2.67,.72-3.41,.05-.26,.1-.49,.15-.67,.05-.18,.1-.36,.15-.52,.05-.16,.12-.28,.19-.36s.14-.16,.2-.24c.05-.08,.16-.15,.31-.2,.16-.05,.28-.09,.35-.12,.08-.03,.24-.04,.47-.04,.24,0,.43,0,.59,0h.79c.37-.01,.66-.01,.87-.02-.2,1-.54,2.55-1.02,4.64-.48,2.09-.82,3.66-1.02,4.72-.86,3.65-2.25,6.4-4.15,8.26-1.91,1.86-3.99,2.81-6.26,2.83-2.43,.02-4.41-.89-5.96-2.75-1.55-1.86-1.99-4.19-1.33-6.99,.15-.58,.43-1.73,.84-3.45,.41-1.72,.73-3.2,.99-4.44,.25-1.24,.45-2.39,.6-3.45,.24-2.16-.19-3.19-1.29-3.07-1.11,.06-2.2,1.05-3.29,2.96-.47,.9-.8,1.77-1,2.62l-.3,1.74c-2.48,11.25-3.72,16.91-3.72,16.96Z"/><path class="cls-1" d="M303.38,562.05c-.28,1.1-.69,2.69-1.22,4.77-.53,2.08-.91,3.58-1.14,4.53-1.35,5.46-3.93,8.91-7.75,10.32-2.86,1.01-5.41,.6-7.65-1.22-2.4-1.99-3.14-4.74-2.25-8.26,.28-1.31,.65-2.82,1.1-4.53,.45-1.71,.88-3.41,1.3-5.12,.42-1.71,.77-3.22,1.06-4.53,.56-2.15,1.39-3.72,2.48-4.71,1.09-.98,2.37-1.43,3.82-1.33,1.45,.1,3.06,.46,4.85,1.06-.73,2.89-2.16,8.72-4.3,17.49-1.01,3.83-.93,5.76,.23,5.78,.84-.04,1.76-1,2.73-2.89,.38-.84,.68-1.68,.91-2.52,.84-3.41,1.4-5.7,1.68-6.86,.06-.26,.11-.49,.17-.67,.05-.18,.12-.37,.21-.55,.08-.18,.15-.31,.2-.39,.05-.08,.16-.16,.32-.23,.16-.08,.27-.13,.32-.15,.05-.03,.21-.05,.48-.07,.26-.02,.46-.03,.59-.03,.13,0,.41,.02,.83,.05,.42,.03,.76,.05,1.03,.05Zm-8.79-20.38c1.27-.35,2.46-.25,3.56,.29,1.1,.54,1.81,1.38,2.14,2.52,.32,1.14,.15,2.23-.52,3.27-.68,1.05-1.62,1.74-2.84,2.09-.9,.2-1.73,.22-2.49,.08-.76-.14-1.44-.48-2.04-1.02-.6-.54-1-1.17-1.2-1.92-.3-1.11-.11-2.19,.56-3.23,.67-1.04,1.62-1.74,2.84-2.09Z"/><path class="cls-1" d="M325.53,531.95c.69-1.5,1.5-2.78,2.41-3.82,.91-1.04,1.95-1.83,3.1-2.37,1.16-.53,2.43-.69,3.82-.48,1.39,.21,2.86,.8,4.4,1.76-1.58,1.2-2.89,2.97-3.93,5.3-.64,1.4-1.26,2.9-1.88,4.51-.62,1.61-1.27,3.48-1.97,5.62-.69,2.14-1.28,3.97-1.76,5.51-.48,1.54-1.1,3.65-1.84,6.34-.74,2.69-1.27,4.58-1.57,5.68-.31,1.1-.85,3.11-1.63,6.03-.78,2.92-1.23,4.62-1.35,5.09l-.28,1.1c-.82,3.29-.7,4.91,.36,4.84,.95-.07,1.92-1.08,2.89-3.05,.35-.72,.64-1.48,.88-2.26,.13-.63,.41-1.71,.84-3.25,.43-1.54,.77-2.7,1.01-3.48,.06-.26,.12-.48,.18-.67,.06-.18,.11-.35,.14-.51,.03-.16,.1-.27,.21-.35,.11-.07,.19-.15,.25-.23,.05-.08,.15-.14,.28-.19,.13-.05,.24-.08,.32-.11,.08-.02,.25-.03,.52-.02,.26,.01,.46,.02,.59,.02,.13,0,.38,.02,.75,.03,.37,.01,.66,.03,.87,.04-.99,3.65-1.83,6.73-2.51,9.24-.74,2.56-1.76,4.69-3.07,6.41-1.31,1.72-2.7,2.86-4.17,3.43-1.48,.57-2.92,.79-4.34,.66-1.42-.14-2.69-.65-3.82-1.54-1.13-.89-1.9-2.03-2.32-3.42-2.7,2.9-5.63,4.29-8.79,4.16-3.79-.15-6.06-2.3-6.79-6.45-.73-4.14,.11-8.65,2.52-13.51,2.46-4.81,5.54-7.77,9.22-8.89,1.07-.33,2.1-.47,3.1-.43,2.42,.1,4.23,1.07,5.42,2.91,2.96-10.65,5.6-18.53,7.91-23.66Zm-16.44,42.95c1.26,.05,2.71-1.79,4.34-5.52,1.91-4.2,2.65-7.44,2.21-9.72-.23-.96-.71-1.45-1.44-1.48-1.63-.07-3.19,1.96-4.68,6.07-1.48,4-2,7.12-1.56,9.36,.18,.85,.55,1.29,1.13,1.31Z"/><path class="cls-1" d="M358.81,567.29c.07-.26,.14-.48,.21-.66,.07-.18,.13-.35,.2-.5,.06-.15,.14-.27,.22-.34,.08-.07,.16-.16,.22-.26,.06-.1,.17-.16,.33-.17,.16-.01,.28-.03,.36-.05,.08-.02,.24-.02,.48,0,.24,.02,.42,.03,.55,.04,.13,0,.38,.03,.75,.06,.37,.03,.68,.05,.95,.07-.75,2.27-1.72,5.32-2.9,9.14-.82,2.53-1.92,4.63-3.29,6.3-1.37,1.67-2.8,2.76-4.29,3.29-1.49,.52-2.96,.69-4.4,.5-1.44-.19-2.69-.76-3.76-1.71-1.07-.95-1.78-2.13-2.15-3.53-2.86,2.85-5.86,4.16-9.02,3.93-3.79-.28-5.97-2.51-6.56-6.68-.59-4.17,.41-8.64,2.99-13.42,2.63-4.72,5.8-7.58,9.52-8.57,1.08-.29,2.12-.4,3.12-.32,2.58,.19,4.44,1.36,5.61,3.51,1.04-1.88,2.48-2.91,4.31-3.09,1.84-.18,3.82,.29,5.96,1.4-.49,1.66-1.35,4.39-2.56,8.21-1.21,3.82-2.16,6.82-2.85,8.99-1.18,3.77-1.19,5.67-.03,5.71,.84,.01,1.81-.9,2.9-2.72,.43-.76,.78-1.58,1.06-2.46,.43-1.55,1.13-3.77,2.08-6.66Zm-20.35,9.18c1.26,.09,2.77-1.7,4.53-5.37,2-4.13,2.82-7.35,2.47-9.65-.2-.91-.63-1.42-1.31-1.53-1.63-.12-3.26,1.85-4.88,5.9-1.62,3.95-2.25,7.05-1.88,9.3,.15,.86,.51,1.31,1.09,1.35Z"/><path class="cls-1" d="M379.29,569.86c8.87-2.23,15.23-1.47,19.08,2.28,2.37,2.35,3.2,5.19,2.49,8.5-.64,3.11-2.38,5.26-5.23,6.46-2.23,.9-4.76,.92-7.57,.05,3.01-6.06,1.27-9.99-5.21-11.77-.77-.2-1.68-.36-2.73-.49l.96,.59c-.49,1.85-1.72,3.78-3.71,5.77-1.2,1.18-2.45,2.16-3.74,2.94-1.29,.78-2.99,1.38-5.12,1.82-3.87,.86-6.62,.27-8.23-1.78-1.43-1.82-1.23-3.92,.59-6.3,1.64-2.14,4.32-3.92,8.04-5.33-4.1-.38-6.88-1.27-8.36-2.67-1.23-1.26-1.66-2.67-1.29-4.22,.37-1.55,1.22-3.03,2.56-4.43,1.34-1.41,2.88-2.56,4.64-3.47,4.28-2.09,8.64-2.79,13.07-2.1,3.96,.63,6.16,2.22,6.6,4.77,.2,1.46-.21,3.06-1.21,4.79-.45,.69-1.27,1.49-2.44,2.42-.36-1.42-1.61-2.49-3.76-3.2-2.15-.71-4.3-.91-6.46-.61-2.16,.3-3.44,.98-3.83,2.05-.17,.56-.06,1.02,.36,1.36,.41,.34,1.06,.58,1.95,.71,.89,.13,1.8,.25,2.74,.37,.94,.11,1.94,.27,3.01,.48,1.06,.21,1.89,.5,2.48,.89,.1,.01,.21,.05,.3,.12Z"/></g></g></svg>