<?xml version="1.0" encoding="UTF-8"?><svg id="Capa_2" xmlns="http://www.w3.org/2000/svg" viewBox="0 0 27.71 23.71"><defs><style>.cls-1{fill:#dadada;}</style></defs><path class="cls-1" d="M25.46,22.12H2.25c-.49,0-.89-.4-.89-.89V2.48c0-.49,.4-.89,.89-.89H25.46c.49,0,.89,.4,.89,.89V21.23c0,.49-.4,.89-.89,.89Zm-22.32-1.79H24.57V3.37H3.14V20.34Z"/><path class="cls-1" d="M13.85,14.88c-.61,0-1.23-.21-1.73-.63L1.67,5.42c-.38-.32-.43-.88-.11-1.26s.88-.42,1.26-.11L13.28,12.88c.33,.28,.82,.28,1.15,0L24.88,4.06c.38-.32,.94-.27,1.26,.11,.32,.38,.27,.94-.11,1.26L15.58,14.24c-.5,.42-1.11,.63-1.73,.63Z"/></svg>