<?xml version="1.0" encoding="UTF-8"?><svg id="Capa_2" xmlns="http://www.w3.org/2000/svg" viewBox="0 0 35 35"><defs><style>.cls-1{fill:#fff;}</style></defs><path class="cls-1" d="M5.74,16.33c-2.57,0-4.67-2.09-4.67-4.67S3.17,7,5.74,7s4.67,2.09,4.67,4.67-2.09,4.67-4.67,4.67Zm0-7c-1.29,0-2.33,1.05-2.33,2.33s1.05,2.33,2.33,2.33,2.33-1.05,2.33-2.33-1.05-2.33-2.33-2.33Z"/><path class="cls-1" d="M5.74,33.83c-.64,0-1.17-.52-1.17-1.17V15.17c0-.64,.52-1.17,1.17-1.17s1.17,.52,1.17,1.17v17.5c0,.64-.52,1.17-1.17,1.17Z"/><path class="cls-1" d="M5.74,9.33c-.64,0-1.17-.52-1.17-1.17V2.34c0-.64,.52-1.17,1.17-1.17s1.17,.52,1.17,1.17v5.83c0,.64-.52,1.17-1.17,1.17Z"/><path class="cls-1" d="M29.07,16.33c-2.57,0-4.67-2.09-4.67-4.67s2.09-4.67,4.67-4.67,4.67,2.09,4.67,4.67-2.09,4.67-4.67,4.67Zm0-7c-1.29,0-2.33,1.05-2.33,2.33s1.05,2.33,2.33,2.33,2.33-1.05,2.33-2.33-1.05-2.33-2.33-2.33Z"/><path class="cls-1" d="M29.07,9.33c-.64,0-1.17-.52-1.17-1.17V2.34c0-.64,.52-1.17,1.17-1.17s1.17,.52,1.17,1.17v5.83c0,.64-.52,1.17-1.17,1.17Z"/><path class="cls-1" d="M29.07,33.83c-.64,0-1.17-.52-1.17-1.17V15.17c0-.64,.52-1.17,1.17-1.17s1.17,.52,1.17,1.17v17.5c0,.64-.52,1.17-1.17,1.17Z"/><path class="cls-1" d="M17.41,22.17c-2.57,0-4.67-2.09-4.67-4.67s2.09-4.67,4.67-4.67,4.67,2.09,4.67,4.67-2.09,4.67-4.67,4.67Zm0-7c-1.29,0-2.33,1.05-2.33,2.33s1.05,2.33,2.33,2.33,2.33-1.05,2.33-2.33-1.05-2.33-2.33-2.33Z"/><path class="cls-1" d="M17.41,15.17c-.64,0-1.17-.52-1.17-1.17V2.34c0-.64,.52-1.17,1.17-1.17s1.17,.52,1.17,1.17V14c0,.64-.52,1.17-1.17,1.17Z"/><path class="cls-1" d="M17.41,33.83c-.64,0-1.17-.52-1.17-1.17v-11.66c0-.64,.52-1.17,1.17-1.17s1.17,.52,1.17,1.17v11.66c0,.64-.52,1.17-1.17,1.17Z"/></svg>