<?xml version="1.0" encoding="UTF-8"?><svg id="Capa_2" xmlns="http://www.w3.org/2000/svg" viewBox="0 0 26.91 27.21"><defs><style>.cls-1{fill:#dadada;}</style></defs><path class="cls-1" d="M25.05,20.76H1.85c-.49,0-.89-.4-.89-.89s.4-.89,.89-.89c.02,0,3.05-.84,3.05-9.3C4.9,4.95,8.73,1.12,13.45,1.12s8.55,3.84,8.55,8.55c0,8.35,2.97,9.28,3.06,9.3,.01,0,.02,0,.03,0,.48,.01,.86,.41,.86,.89s-.41,.89-.9,.89Zm-20.52-1.79H22.36c-1.14-1.58-2.15-4.41-2.15-9.3,0-3.73-3.04-6.77-6.77-6.77s-6.77,3.04-6.77,6.77c0,4.89-1.01,7.72-2.15,9.3Z"/><path class="cls-1" d="M13.44,26.09c-.64,0-1.28-.17-1.85-.5-.84-.5-1.44-1.29-1.69-2.24-.13-.48,.16-.96,.64-1.09,.49-.14,.97,.16,1.09,.64,.13,.48,.43,.89,.87,1.15,.43,.25,.93,.32,1.42,.2,.66-.17,1.17-.69,1.34-1.34,.12-.47,.61-.78,1.09-.64,.48,.12,.76,.61,.64,1.09-.33,1.28-1.34,2.29-2.62,2.62-.31,.08-.62,.12-.93,.12Z"/></svg>