<?xml version="1.0" encoding="UTF-8"?><svg id="Capa_2" xmlns="http://www.w3.org/2000/svg" viewBox="0 0 35 35"><defs><style>.cls-1{fill:#fff;}</style></defs><path class="cls-1" d="M30.33,33.83H4.67c-1.93,0-3.5-1.57-3.5-3.5v-12.97c0-.97,.4-1.91,1.12-2.58L16.71,1.48c.45-.41,1.13-.41,1.58,0l14.42,13.3c.72,.67,1.13,1.61,1.12,2.59v12.96c0,1.93-1.57,3.5-3.5,3.5ZM17.5,3.93L3.87,16.49c-.24,.22-.37,.54-.37,.86v12.98c0,.64,.52,1.17,1.17,1.17H30.33c.64,0,1.17-.52,1.17-1.17v-12.97h0c0-.33-.13-.65-.37-.87L17.5,3.93Z"/></svg>