<?xml version="1.0" encoding="UTF-8"?><svg id="Capa_2" xmlns="http://www.w3.org/2000/svg" viewBox="0 0 35 35"><defs><style>.cls-1{fill:#fff;}</style></defs><path class="cls-1" d="M11.97,15.17H4.97c-1.93,0-3.5-1.57-3.5-3.5V4.67c0-1.93,1.57-3.5,3.5-3.5h7c1.93,0,3.5,1.57,3.5,3.5v7c0,1.93-1.57,3.5-3.5,3.5ZM4.97,3.5c-.64,0-1.17,.52-1.17,1.17v7c0,.64,.52,1.17,1.17,1.17h7c.64,0,1.17-.52,1.17-1.17V4.67c0-.64-.52-1.17-1.17-1.17H4.97Z"/><path class="cls-1" d="M30.63,15.17h-7c-1.93,0-3.5-1.57-3.5-3.5V4.67c0-1.93,1.57-3.5,3.5-3.5h7c1.93,0,3.5,1.57,3.5,3.5v7c0,1.93-1.57,3.5-3.5,3.5ZM23.63,3.5c-.64,0-1.17,.52-1.17,1.17v7c0,.64,.52,1.17,1.17,1.17h7c.64,0,1.17-.52,1.17-1.17V4.67c0-.64-.52-1.17-1.17-1.17h-7Z"/><path class="cls-1" d="M11.97,33.83H4.97c-1.93,0-3.5-1.57-3.5-3.5v-7c0-1.93,1.57-3.5,3.5-3.5h7c1.93,0,3.5,1.57,3.5,3.5v7c0,1.93-1.57,3.5-3.5,3.5Zm-7-11.66c-.64,0-1.17,.52-1.17,1.17v7c0,.64,.52,1.17,1.17,1.17h7c.64,0,1.17-.52,1.17-1.17v-7c0-.64-.52-1.17-1.17-1.17H4.97Z"/><path class="cls-1" d="M30.63,33.83h-7c-1.93,0-3.5-1.57-3.5-3.5v-7c0-1.93,1.57-3.5,3.5-3.5h7c1.93,0,3.5,1.57,3.5,3.5v7c0,1.93-1.57,3.5-3.5,3.5Zm-7-11.66c-.64,0-1.17,.52-1.17,1.17v7c0,.64,.52,1.17,1.17,1.17h7c.64,0,1.17-.52,1.17-1.17v-7c0-.64-.52-1.17-1.17-1.17h-7Z"/></svg>