<?xml version="1.0" encoding="UTF-8"?><svg id="Capa_2" xmlns="http://www.w3.org/2000/svg" viewBox="0 0 35 35"><defs><style>.cls-1{fill:#dadada;}</style></defs><path class="cls-1" d="M15.19,27.87c-7,0-12.69-5.69-12.69-12.69S8.19,2.5,15.19,2.5s12.69,5.69,12.69,12.69-5.69,12.69-12.69,12.69Zm0-23.23c-5.81,0-10.54,4.73-10.54,10.54s4.73,10.54,10.54,10.54,10.54-4.73,10.54-10.54S21,4.64,15.19,4.64Z"/><path class="cls-1" d="M31.43,32.5c-.27,0-.55-.1-.76-.31l-8.04-8.04c-.42-.42-.42-1.1,0-1.52s1.1-.42,1.52,0l8.04,8.04c.42,.42,.42,1.1,0,1.52-.21,.21-.48,.31-.76,.31Z"/></svg>